<?xml version="1.0" encoding="UTF-8"?>
<!-- Generator: visioncortex VTracer 0.6.3 -->
<svg version="1.1" xmlns="http://www.w3.org/2000/svg" width="1280" height="731">
<path d="M0 0 C422.4 0 844.8 0 1280 0 C1280 241.23 1280 482.46 1280 731 C857.6 731 435.2 731 0 731 C0 489.77 0 248.54 0 0 Z " fill="#FCFCFC" transform="translate(0,0)"/>
<path d="M0 0 C4.95 0 9.9 0 15 0 C15.66 1.65 16.32 3.3 17 5 C41.75 5.5 41.75 5.5 67 6 C67.33 4.35 67.66 2.7 68 1 C69.32 0.67 70.64 0.34 72 0 C72.99 2.48 72.99 2.48 74 5 C98.75 5.5 98.75 5.5 124 6 C124.33 4.35 124.66 2.7 125 1 C126.32 0.67 127.64 0.34 129 0 C129.99 2.48 129.99 2.48 131 5 C155.75 5.5 155.75 5.5 181 6 C181.33 4.35 181.66 2.7 182 1 C183.32 0.67 184.64 0.34 186 0 C186.99 2.48 186.99 2.48 188 5 C212.75 5.5 212.75 5.5 238 6 C238.33 4.35 238.66 2.7 239 1 C240.32 0.67 241.64 0.34 243 0 C243.99 2.48 243.99 2.48 245 5 C269.75 5.5 269.75 5.5 295 6 C295.33 4.35 295.66 2.7 296 1 C297.32 0.67 298.64 0.34 300 0 C300.66 1.65 301.32 3.3 302 5 C326.75 5.5 326.75 5.5 352 6 C352.33 4.35 352.66 2.7 353 1 C354.32 1 355.64 1 357 1 C357.66 2.32 358.32 3.64 359 5 C383.75 5.5 383.75 5.5 409 6 C409 4.35 409 2.7 409 1 C410.32 0.67 411.64 0.34 413 0 C413.66 1.65 414.32 3.3 415 5 C431.83 5.33 448.66 5.66 466 6 C466 4.35 466 2.7 466 1 C467.32 0.67 468.64 0.34 470 0 C470.66 1.65 471.32 3.3 472 5 C496.75 5.5 496.75 5.5 522 6 C522.33 4.35 522.66 2.7 523 1 C524.32 0.67 525.64 0.34 527 0 C527.66 1.65 528.32 3.3 529 5 C553.75 5.5 553.75 5.5 579 6 C579.33 4.35 579.66 2.7 580 1 C581.32 0.67 582.64 0.34 584 0 C584.66 1.65 585.32 3.3 586 5 C610.75 5.5 610.75 5.5 636 6 C636.33 4.35 636.66 2.7 637 1 C638.32 0.67 639.64 0.34 641 0 C641.66 1.65 642.32 3.3 643 5 C667.75 5.5 667.75 5.5 693 6 C693.33 4.35 693.66 2.7 694 1 C695.32 0.67 696.64 0.34 698 0 C698.66 1.65 699.32 3.3 700 5 C724.75 5.5 724.75 5.5 750 6 C750.33 4.35 750.66 2.7 751 1 C752.32 0.67 753.64 0.34 755 0 C755.66 1.65 756.32 3.3 757 5 C781.75 5.5 781.75 5.5 807 6 C807.33 4.35 807.66 2.7 808 1 C809.32 0.67 810.64 0.34 812 0 C812.66 1.65 813.32 3.3 814 5 C838.75 5.5 838.75 5.5 864 6 C864.33 4.35 864.66 2.7 865 1 C866.32 1 867.64 1 869 1 C869.66 2.32 870.32 3.64 871 5 C895.75 5.5 895.75 5.5 921 6 C921 4.35 921 2.7 921 1 C922.32 0.67 923.64 0.34 925 0 C925.66 1.65 926.32 3.3 927 5 C943.83 5.33 960.66 5.66 978 6 C978 4.35 978 2.7 978 1 C979.32 0.67 980.64 0.34 982 0 C982.66 1.65 983.32 3.3 984 5 C1008.75 5.5 1008.75 5.5 1034 6 C1034.33 4.35 1034.66 2.7 1035 1 C1036.32 0.67 1037.64 0.34 1039 0 C1039.66 1.65 1040.32 3.3 1041 5 C1065.75 5.5 1065.75 5.5 1091 6 C1091.33 4.35 1091.66 2.7 1092 1 C1093.32 0.67 1094.64 0.34 1096 0 C1096.66 1.65 1097.32 3.3 1098 5 C1122.75 5.5 1122.75 5.5 1148 6 C1148.33 4.35 1148.66 2.7 1149 1 C1150.32 0.67 1151.64 0.34 1153 0 C1153.66 1.65 1154.32 3.3 1155 5 C1179.75 5.5 1179.75 5.5 1205 6 C1205.33 4.35 1205.66 2.7 1206 1 C1207.32 0.67 1208.64 0.34 1210 0 C1210.66 1.65 1211.32 3.3 1212 5 C1236.75 5.5 1236.75 5.5 1262 6 C1262.33 4.35 1262.66 2.7 1263 1 C1263.33 0.67 1263.66 0.34 1264 0 C1269.28 0 1274.56 0 1280 0 C1280 80.85 1280 161.7 1280 245 C857.6 245 435.2 245 0 245 C0 164.15 0 83.3 0 0 Z " fill="#D90A02" transform="translate(0,486)"/>
<path d="M0 0 C422.4 0 844.8 0 1280 0 C1280 80.19 1280 160.38 1280 243 C1274.39 243 1268.78 243 1263 243 C1262.34 241.35 1261.68 239.7 1261 238 C1245.16 238 1229.32 238 1213 238 C1212.34 239.65 1211.68 241.3 1211 243 C1209.35 243 1207.7 243 1206 243 C1205.34 241.35 1204.68 239.7 1204 238 C1188.16 238 1172.32 238 1156 238 C1155.34 239.65 1154.68 241.3 1154 243 C1152.35 243 1150.7 243 1149 243 C1148.34 241.35 1147.68 239.7 1147 238 C1131.16 238 1115.32 238 1099 238 C1098.34 239.65 1097.68 241.3 1097 243 C1095.02 242.67 1093.04 242.34 1091 242 C1090.67 240.68 1090.34 239.36 1090 238 C1074.16 238 1058.32 238 1042 238 C1041.34 239.65 1040.68 241.3 1040 243 C1038.02 242.67 1036.04 242.34 1034 242 C1033.67 240.68 1033.34 239.36 1033 238 C1017.16 238 1001.32 238 985 238 C984.34 239.65 983.68 241.3 983 243 C980.62 242.75 980.62 242.75 978 242 C977.34 240.68 976.68 239.36 976 238 C960.16 238 944.32 238 928 238 C927.34 239.65 926.68 241.3 926 243 C924.35 242.67 922.7 242.34 921 242 C920.67 240.68 920.34 239.36 920 238 C903.83 238 887.66 238 871 238 C870.34 239.65 869.68 241.3 869 243 C867.35 242.67 865.7 242.34 864 242 C863.67 240.68 863.34 239.36 863 238 C846.5 238 830 238 813 238 C813 239.65 813 241.3 813 243 C811.35 243 809.7 243 808 243 C807.34 241.35 806.68 239.7 806 238 C790.16 238 774.32 238 758 238 C757.34 239.65 756.68 241.3 756 243 C754.35 243 752.7 243 751 243 C750.34 241.35 749.68 239.7 749 238 C733.16 238 717.32 238 701 238 C700.34 239.65 699.68 241.3 699 243 C697.35 243 695.7 243 694 243 C693.34 241.35 692.68 239.7 692 238 C676.16 238 660.32 238 644 238 C643.34 239.65 642.68 241.3 642 243 C640.35 243 638.7 243 637 243 C636.34 241.35 635.68 239.7 635 238 C619.16 238 603.32 238 587 238 C586.34 239.65 585.68 241.3 585 243 C583.02 242.67 581.04 242.34 579 242 C578.67 240.68 578.34 239.36 578 238 C562.16 238 546.32 238 530 238 C529.34 239.65 528.68 241.3 528 243 C526.02 242.67 524.04 242.34 522 242 C521.67 240.68 521.34 239.36 521 238 C505.16 238 489.32 238 473 238 C472.34 239.65 471.68 241.3 471 243 C468.62 242.75 468.62 242.75 466 242 C465.34 240.68 464.68 239.36 464 238 C448.16 238 432.32 238 416 238 C415.34 239.65 414.68 241.3 414 243 C412.35 242.67 410.7 242.34 409 242 C408.67 240.68 408.34 239.36 408 238 C391.83 238 375.66 238 359 238 C358.34 239.65 357.68 241.3 357 243 C355.35 242.67 353.7 242.34 352 242 C351.67 240.68 351.34 239.36 351 238 C334.5 238 318 238 301 238 C301 239.65 301 241.3 301 243 C299.35 243 297.7 243 296 243 C295.34 241.35 294.68 239.7 294 238 C278.16 238 262.32 238 246 238 C245.34 239.65 244.68 241.3 244 243 C242.35 243 240.7 243 239 243 C238.01 240.52 238.01 240.52 237 238 C221.16 238 205.32 238 189 238 C188.34 239.65 187.68 241.3 187 243 C185.35 243 183.7 243 182 243 C181.01 240.52 181.01 240.52 180 238 C164.16 238 148.32 238 132 238 C131.34 239.65 130.68 241.3 130 243 C128.35 243 126.7 243 125 243 C124.01 240.52 124.01 240.52 123 238 C107.16 238 91.32 238 75 238 C74.34 239.65 73.68 241.3 73 243 C71.02 242.67 69.04 242.34 67 242 C66.67 240.68 66.34 239.36 66 238 C50.16 238 34.32 238 18 238 C17.34 239.65 16.68 241.3 16 243 C10.72 243 5.44 243 0 243 C0 162.81 0 82.62 0 0 Z " fill="#209E40" transform="translate(0,0)"/>
<path d="M0 0 C5.26 1 8.88 3.68 12 8 C13.12 12.49 12.98 16.84 12.85 21.44 C12.84 22.79 12.84 24.13 12.83 25.48 C12.82 29.09 12.75 32.7 12.67 36.32 C12.61 39.32 12.58 42.31 12.55 45.31 C12.29 73.22 11.31 101.12 10 129 C16.2 124.14 22.1 119.47 26.81 113.12 C27.27 112.53 27.72 111.93 28.19 111.31 C36.57 100.07 42.76 86.91 45 73 C45.11 72.33 45.22 71.66 45.34 70.98 C48.17 50.38 44.74 28.9 34 11 C34 10.01 34 9.02 34 8 C34.66 8 35.32 8 36 8 C54.82 29.06 61.43 52.09 60 80 C58.01 100.03 46.64 119.39 31.28 132.2 C26.98 135.65 22.59 138.94 18 142 C28.21 144.87 38.53 146.46 49 148 C42.4 152.13 33.37 151.16 25.88 151.12 C24.91 151.13 23.95 151.13 22.96 151.14 C18.19 151.13 13.68 150.99 9 150 C8.89 150.58 8.78 151.17 8.66 151.77 C7.94 154.2 6.96 155.73 5.44 157.75 C4.98 158.36 4.53 158.98 4.06 159.61 C3.71 160.07 3.36 160.53 3 161 C0.81 160.5 0.81 160.5 -2 159 C-2.66 157.66 -3.29 156.3 -3.89 154.93 C-5.12 152.69 -5.12 152.69 -7 151 C-11.19 150.01 -15.23 150.35 -19.5 150.62 C-21.84 150.71 -24.18 150.78 -26.52 150.85 C-27.64 150.89 -28.76 150.93 -29.91 150.97 C-35.4 151.03 -40.65 150.21 -46 149 C-43.03 146.03 -39.57 146.4 -35.56 146.06 C-28.46 145.38 -21.8 144.25 -15 142 C-15.91 141.27 -15.91 141.27 -16.84 140.53 C-18.61 139.12 -20.37 137.7 -22.14 136.28 C-23.95 134.84 -25.77 133.41 -27.61 132 C-44.48 118.99 -54.63 100.31 -57.68 79.19 C-59.96 56.27 -53.57 33.4 -39.19 15.25 C-38.47 14.51 -37.74 13.76 -37 13 C-36.34 13 -35.68 13 -35 13 C-33.63 11.71 -32.29 10.38 -31 9 C-32.05 11.7 -33.16 14.35 -34.37 16.99 C-44.37 39.05 -47.05 62.33 -38.9 85.52 C-37.69 88.72 -36.37 91.86 -35 95 C-34.6 95.94 -34.2 96.89 -33.78 97.86 C-28.4 109.56 -18.32 121.75 -7 128 C-7.07 127.39 -7.13 126.79 -7.2 126.16 C-7.83 120.15 -8.26 114.16 -8.54 108.12 C-8.58 107.19 -8.62 106.25 -8.67 105.28 C-9.64 83.55 -10.27 61.82 -10.41 40.08 C-10.43 37.49 -10.46 34.9 -10.49 32.31 C-10.54 28.68 -10.55 25.05 -10.56 21.42 C-10.58 20.33 -10.6 19.25 -10.62 18.13 C-10.57 10.75 -10.57 10.75 -7.61 6.86 C-5.43 5.31 -3.37 4.18 -1 3 C-0.67 2.01 -0.34 1.02 0 0 Z " fill="#D90A02" transform="translate(638,294)"/>
<path d="M0 0 C11.99 1.45 21.79 8.57 30 17 C30.68 17.65 31.37 18.3 32.07 18.98 C41.45 28.51 47.86 41.87 50 55 C50.13 55.72 50.26 56.45 50.39 57.2 C53.24 76.12 48 93.92 37.12 109.38 C31.67 116.08 25.52 122.65 18 127 C18.27 126.48 18.54 125.97 18.81 125.44 C19.99 123.02 21.05 120.57 22.09 118.09 C22.75 116.58 23.44 115.08 24.16 113.59 C35.49 89.97 36.07 63.56 27.44 39 C22.6 26.21 14.32 15.85 5 6 C3.3 4.03 1.65 2.02 0 0 Z " fill="#D90A02" transform="translate(680,298)"/>
<path d="M0 0 C0.99 0.66 1.98 1.32 3 2 C2.12 2.69 1.24 3.39 0.34 4.11 C-16.05 17.81 -26.08 40.95 -28.72 61.77 C-30.64 83.91 -24.82 102.86 -14 122 C-13.32 123.33 -12.65 124.66 -12 126 C-26.37 117.87 -35.99 106.2 -42 91 C-42.45 89.87 -42.9 88.74 -43.37 87.57 C-49.48 69.6 -46.24 51.23 -38.66 34.32 C-30.77 18.52 -18.03 8.18 -2.38 0.69 C-1.6 0.46 -0.81 0.23 0 0 Z " fill="#D90A02" transform="translate(594,299)"/>
<path d="M0 0 C1.32 0.33 2.64 0.66 4 1 C4.33 7.6 4.66 14.2 5 21 C6.32 21.33 7.64 21.66 9 22 C9.33 15.07 9.66 8.14 10 1 C11.32 0.67 12.64 0.34 14 0 C15.58 1.58 15.22 3.28 15.32 5.47 C15.36 6.37 15.4 7.27 15.44 8.2 C15.48 9.14 15.52 10.09 15.56 11.06 C15.61 12.01 15.65 12.96 15.69 13.94 C15.8 16.29 15.9 18.65 16 21 C18.48 21.99 18.48 21.99 21 23 C21 16.07 21 9.14 21 2 C22.32 1.34 23.64 0.68 25 0 C27 2 27 2 27.23 4.61 C27.22 5.69 27.21 6.77 27.2 7.88 C27.19 9.05 27.18 10.22 27.18 11.42 C27.16 12.64 27.14 13.86 27.12 15.12 C27.12 16.36 27.11 17.59 27.1 18.86 C27.07 21.9 27.04 24.95 27 28 C23.03 28.02 19.06 28.04 15.09 28.05 C13.74 28.06 12.39 28.07 11.04 28.08 C9.1 28.09 7.16 28.09 5.22 28.1 C3.47 28.11 3.47 28.11 1.68 28.11 C-1 28 -1 28 -2 27 C-2.46 24.01 -2.7 21.01 -3 18 C-7.62 18 -12.24 18 -17 18 C-17 19.32 -17 20.64 -17 22 C-14.36 22.33 -11.72 22.66 -9 23 C-8.67 24.65 -8.34 26.3 -8 28 C-10.65 28.03 -13.29 28.05 -15.94 28.06 C-16.69 28.07 -17.45 28.08 -18.22 28.09 C-20.15 28.1 -22.08 28.05 -24 28 C-25.93 26.07 -25.17 22.63 -25.19 20.06 C-25.2 18.8 -25.22 17.53 -25.23 16.22 C-25 13 -25 13 -23 11 C-20.85 10.77 -20.85 10.77 -18.21 10.8 C-17.27 10.81 -16.33 10.82 -15.36 10.82 C-14.37 10.84 -13.39 10.86 -12.38 10.88 C-11.38 10.88 -10.39 10.89 -9.37 10.9 C-6.91 10.93 -4.46 10.96 -2 11 C-2.02 10.37 -2.05 9.75 -2.07 9.1 C-2.09 8.28 -2.11 7.47 -2.12 6.62 C-2.15 5.81 -2.17 5 -2.2 4.16 C-2 2 -2 2 0 0 Z " fill="#FDFDFD" transform="translate(439,498)"/>
<path d="M0 0 C1.32 0.33 2.64 0.66 4 1 C4.33 7.93 4.66 14.86 5 22 C6.65 22.33 8.3 22.66 10 23 C10 15.74 10 8.48 10 1 C11.32 0.67 12.64 0.34 14 0 C15.62 1.62 15.22 3.46 15.32 5.69 C15.36 6.64 15.4 7.58 15.44 8.55 C15.48 9.55 15.52 10.54 15.56 11.56 C15.61 12.56 15.65 13.56 15.69 14.58 C15.8 17.06 15.9 19.53 16 22 C17.65 22.33 19.3 22.66 21 23 C20.98 22.06 20.98 22.06 20.97 21.1 C20.93 18.28 20.9 15.45 20.88 12.62 C20.86 11.64 20.84 10.66 20.82 9.64 C20.81 8.23 20.81 8.23 20.8 6.79 C20.79 5.49 20.79 5.49 20.77 4.15 C21 2 21 2 23 0 C24.32 0.33 25.64 0.66 27 1 C27 9.91 27 18.82 27 28 C23.03 28.02 19.06 28.04 15.09 28.05 C13.74 28.06 12.39 28.07 11.04 28.08 C9.1 28.09 7.16 28.09 5.22 28.1 C3.47 28.11 3.47 28.11 1.68 28.11 C-1 28 -1 28 -2 27 C-2.46 24.01 -2.7 21.01 -3 18 C-7.62 18 -12.24 18 -17 18 C-17.33 19.32 -17.66 20.64 -18 22 C-17.37 22.05 -16.75 22.1 -16.1 22.15 C-15.28 22.22 -14.47 22.3 -13.62 22.38 C-12.81 22.44 -12 22.51 -11.16 22.59 C-9 23 -9 23 -7 25 C-7 25.99 -7 26.98 -7 28 C-9.81 28.03 -12.62 28.05 -15.44 28.06 C-16.24 28.07 -17.04 28.08 -17.87 28.09 C-19.91 28.1 -21.96 28.05 -24 28 C-25.93 26.07 -25.17 22.63 -25.19 20.06 C-25.2 18.8 -25.22 17.53 -25.23 16.22 C-25 13 -25 13 -23 11 C-20.85 10.77 -20.85 10.77 -18.21 10.8 C-17.27 10.81 -16.33 10.82 -15.36 10.82 C-14.37 10.84 -13.39 10.86 -12.38 10.88 C-11.38 10.88 -10.39 10.89 -9.37 10.9 C-6.91 10.93 -4.46 10.96 -2 11 C-2.02 10.37 -2.05 9.75 -2.07 9.1 C-2.09 8.28 -2.11 7.47 -2.12 6.62 C-2.15 5.81 -2.17 5 -2.2 4.16 C-2 2 -2 2 0 0 Z " fill="#FDFDFD" transform="translate(894,203)"/>
<path d="M0 0 C1.32 0.33 2.64 0.66 4 1 C4.33 7.6 4.66 14.2 5 21 C6.32 21.66 7.64 22.32 9 23 C8.98 22.06 8.98 22.06 8.97 21.1 C8.93 18.28 8.9 15.45 8.88 12.62 C8.86 11.64 8.84 10.66 8.82 9.64 C8.81 8.23 8.81 8.23 8.8 6.79 C8.79 5.49 8.79 5.49 8.77 4.15 C9 2 9 2 11 0 C12.32 0.33 13.64 0.66 15 1 C15.33 7.6 15.66 14.2 16 21 C18.48 21.99 18.48 21.99 21 23 C21 15.74 21 8.48 21 1 C22.32 0.67 23.64 0.34 25 0 C26 1 26 1 26.11 3.59 C26.11 4.72 26.1 5.84 26.1 7 C26.09 8.22 26.09 9.43 26.09 10.69 C26.08 12.6 26.08 12.6 26.06 14.56 C26.06 15.85 26.05 17.13 26.05 18.45 C26.04 21.63 26.02 24.82 26 28 C21.52 28.03 17.04 28.05 12.56 28.06 C11.28 28.07 10 28.08 8.69 28.09 C6.86 28.09 6.86 28.09 5 28.1 C3.88 28.1 2.75 28.11 1.59 28.11 C-1 28 -1 28 -2 27 C-2.46 24.01 -2.7 21.01 -3 18 C-7.62 18 -12.24 18 -17 18 C-17 19.32 -17 20.64 -17 22 C-14.36 22.33 -11.72 22.66 -9 23 C-8.67 24.65 -8.34 26.3 -8 28 C-10.65 28.03 -13.29 28.05 -15.94 28.06 C-16.69 28.07 -17.45 28.08 -18.22 28.09 C-20.15 28.1 -22.08 28.05 -24 28 C-25.93 26.07 -25.17 22.63 -25.19 20.06 C-25.2 18.8 -25.22 17.53 -25.23 16.22 C-25 13 -25 13 -23 11 C-20.85 10.77 -20.85 10.77 -18.21 10.8 C-17.27 10.81 -16.33 10.82 -15.36 10.82 C-14.37 10.84 -13.39 10.86 -12.38 10.88 C-11.38 10.88 -10.39 10.89 -9.37 10.9 C-6.91 10.93 -4.46 10.96 -2 11 C-2.02 10.37 -2.05 9.75 -2.07 9.1 C-2.09 8.28 -2.11 7.47 -2.12 6.62 C-2.15 5.81 -2.17 5 -2.2 4.16 C-2 2 -2 2 0 0 Z " fill="#FCFCFC" transform="translate(553,498)"/>
<path d="M0 0 C1.32 0.33 2.64 0.66 4 1 C4.33 7.93 4.66 14.86 5 22 C6.65 22.33 8.3 22.66 10 23 C10 15.74 10 8.48 10 1 C11.32 0.67 12.64 0.34 14 0 C15.62 1.62 15.22 3.46 15.32 5.69 C15.36 6.64 15.4 7.58 15.44 8.55 C15.48 9.55 15.52 10.54 15.56 11.56 C15.61 12.56 15.65 13.56 15.69 14.58 C15.8 17.06 15.9 19.53 16 22 C17.65 22.33 19.3 22.66 21 23 C21 16.07 21 9.14 21 2 C22.32 1.34 23.64 0.68 25 0 C27 2 27 2 27.23 4.61 C27.22 5.69 27.21 6.77 27.2 7.88 C27.19 9.05 27.18 10.22 27.18 11.42 C27.16 12.64 27.14 13.86 27.12 15.12 C27.12 16.36 27.11 17.59 27.1 18.86 C27.07 21.9 27.04 24.95 27 28 C23.03 28.02 19.06 28.04 15.09 28.05 C13.74 28.06 12.39 28.07 11.04 28.08 C9.1 28.09 7.16 28.09 5.22 28.1 C3.47 28.11 3.47 28.11 1.68 28.11 C-1 28 -1 28 -2 27 C-2.46 24.01 -2.7 21.01 -3 18 C-7.62 18 -12.24 18 -17 18 C-17.33 19.32 -17.66 20.64 -18 22 C-15.03 22.33 -12.06 22.66 -9 23 C-8.67 24.65 -8.34 26.3 -8 28 C-10.65 28.03 -13.29 28.05 -15.94 28.06 C-16.69 28.07 -17.45 28.08 -18.22 28.09 C-20.15 28.1 -22.08 28.05 -24 28 C-25.93 26.07 -25.17 22.63 -25.19 20.06 C-25.2 18.8 -25.22 17.53 -25.23 16.22 C-25 13 -25 13 -23 11 C-20.85 10.77 -20.85 10.77 -18.21 10.8 C-17.27 10.81 -16.33 10.82 -15.36 10.82 C-14.37 10.84 -13.39 10.86 -12.38 10.88 C-11.38 10.88 -10.39 10.89 -9.37 10.9 C-6.91 10.93 -4.46 10.96 -2 11 C-2.02 10.37 -2.05 9.75 -2.07 9.1 C-2.09 8.28 -2.11 7.47 -2.12 6.62 C-2.15 5.81 -2.17 5 -2.2 4.16 C-2 2 -2 2 0 0 Z " fill="#FDFDFD" transform="translate(439,203)"/>
<path d="M0 0 C1.32 0.33 2.64 0.66 4 1 C4.33 7.6 4.66 14.2 5 21 C7.48 21.99 7.48 21.99 10 23 C10 16.07 10 9.14 10 2 C11.32 1.34 12.64 0.68 14 0 C16.4 2.4 16.28 3.07 16.41 6.35 C16.47 7.63 16.47 7.63 16.53 8.93 C16.56 9.82 16.59 10.71 16.62 11.62 C16.68 12.97 16.68 12.97 16.74 14.34 C16.84 16.56 16.92 18.78 17 21 C18.32 21.66 19.64 22.32 21 23 C20.98 22.06 20.98 22.06 20.97 21.1 C20.93 18.28 20.9 15.45 20.88 12.62 C20.86 11.64 20.84 10.66 20.82 9.64 C20.81 8.23 20.81 8.23 20.8 6.79 C20.79 5.49 20.79 5.49 20.77 4.15 C21 2 21 2 23 0 C24.32 0.33 25.64 0.66 27 1 C27 9.91 27 18.82 27 28 C22.57 28.02 18.13 28.04 13.56 28.06 C12.16 28.07 10.76 28.08 9.32 28.09 C7.68 28.09 7.68 28.09 6 28.1 C4.88 28.1 3.75 28.11 2.59 28.11 C0 28 0 28 -1 27 C-1.32 24.94 -1.51 22.88 -1.72 20.81 C-1.82 18.98 -1.82 18.98 -3 18 C-5.35 17.93 -7.71 17.92 -10.06 17.94 C-11.35 17.95 -12.64 17.96 -13.97 17.96 C-14.97 17.98 -15.97 17.99 -17 18 C-17 19.32 -17 20.64 -17 22 C-14.03 22.33 -11.06 22.66 -8 23 C-7.67 24.65 -7.34 26.3 -7 28 C-9.65 28.03 -12.29 28.05 -14.94 28.06 C-15.69 28.07 -16.45 28.08 -17.22 28.09 C-19.15 28.1 -21.08 28.05 -23 28 C-24.93 26.07 -24.17 22.63 -24.19 20.06 C-24.2 18.8 -24.22 17.53 -24.23 16.22 C-24 13 -24 13 -22 11 C-19.85 10.77 -19.85 10.77 -17.21 10.8 C-16.27 10.81 -15.33 10.82 -14.36 10.82 C-13.37 10.84 -12.39 10.86 -11.38 10.88 C-10.38 10.88 -9.39 10.89 -8.37 10.9 C-5.91 10.93 -3.46 10.96 -1 11 C-1.01 10.29 -1.02 9.58 -1.04 8.85 C-1.04 7.93 -1.05 7.01 -1.06 6.06 C-1.07 5.15 -1.09 4.23 -1.1 3.29 C-1 1 -1 1 0 0 Z " fill="#FCFCFC" transform="translate(780,498)"/>
<path d="M0 0 C1.32 0.33 2.64 0.66 4 1 C4.33 7.6 4.66 14.2 5 21 C7.47 21.99 7.47 21.99 10 23 C10 16.07 10 9.14 10 2 C11.32 1.34 12.64 0.68 14 0 C16.4 2.4 16.28 3.07 16.41 6.35 C16.47 7.63 16.47 7.63 16.53 8.93 C16.56 9.82 16.59 10.71 16.62 11.62 C16.68 12.97 16.68 12.97 16.74 14.34 C16.84 16.56 16.92 18.78 17 21 C18.32 21.66 19.64 22.32 21 23 C20.98 22.17 20.98 22.17 20.97 21.32 C20.93 18.8 20.9 16.27 20.88 13.75 C20.86 12.88 20.84 12 20.82 11.11 C20.81 9.84 20.81 9.84 20.8 8.55 C20.79 7.38 20.79 7.38 20.77 6.2 C21.03 3.74 21.78 2.13 23 0 C24.32 0.33 25.64 0.66 27 1 C27 9.91 27 18.82 27 28 C22.57 28.02 18.13 28.04 13.56 28.06 C12.16 28.07 10.76 28.08 9.32 28.09 C7.68 28.09 7.68 28.09 6 28.1 C4.88 28.1 3.75 28.11 2.59 28.11 C0 28 0 28 -1 27 C-1.32 24.94 -1.51 22.88 -1.72 20.81 C-1.82 18.98 -1.82 18.98 -3 18 C-5.35 17.93 -7.71 17.92 -10.06 17.94 C-11.35 17.95 -12.64 17.96 -13.97 17.96 C-14.97 17.98 -15.97 17.99 -17 18 C-17 19.32 -17 20.64 -17 22 C-14.03 22.33 -11.06 22.66 -8 23 C-7.67 24.65 -7.34 26.3 -7 28 C-9.65 28.03 -12.29 28.05 -14.94 28.06 C-15.69 28.07 -16.45 28.08 -17.22 28.09 C-19.15 28.1 -21.08 28.05 -23 28 C-24.93 26.07 -24.17 22.63 -24.19 20.06 C-24.2 18.8 -24.22 17.53 -24.23 16.22 C-24 13 -24 13 -22 11 C-19.85 10.77 -19.85 10.77 -17.21 10.8 C-16.27 10.81 -15.33 10.82 -14.36 10.82 C-13.37 10.84 -12.39 10.86 -11.38 10.88 C-10.38 10.88 -9.39 10.89 -8.37 10.9 C-5.91 10.93 -3.46 10.96 -1 11 C-1.01 10.29 -1.02 9.58 -1.04 8.85 C-1.04 7.93 -1.05 7.01 -1.06 6.06 C-1.07 5.15 -1.09 4.23 -1.1 3.29 C-1 1 -1 1 0 0 Z " fill="#FDFDFD" transform="translate(1235,498)"/>
<path d="M0 0 C1.32 0.33 2.64 0.66 4 1 C4.33 7.6 4.66 14.2 5 21 C7.47 21.99 7.47 21.99 10 23 C10 16.07 10 9.14 10 2 C11.32 1.34 12.64 0.68 14 0 C16.4 2.4 16.28 3.07 16.41 6.35 C16.47 7.63 16.47 7.63 16.53 8.93 C16.56 9.82 16.59 10.71 16.62 11.62 C16.68 12.97 16.68 12.97 16.74 14.34 C16.84 16.56 16.92 18.78 17 21 C18.32 21.66 19.64 22.32 21 23 C20.98 22.17 20.98 22.17 20.97 21.32 C20.93 18.8 20.9 16.27 20.88 13.75 C20.86 12.88 20.84 12 20.82 11.11 C20.81 9.84 20.81 9.84 20.8 8.55 C20.79 7.38 20.79 7.38 20.77 6.2 C21.03 3.74 21.78 2.13 23 0 C24.32 0.33 25.64 0.66 27 1 C27 9.91 27 18.82 27 28 C22.57 28.02 18.13 28.04 13.56 28.06 C12.16 28.07 10.76 28.08 9.32 28.09 C7.68 28.09 7.68 28.09 6 28.1 C4.88 28.1 3.75 28.11 2.59 28.11 C0 28 0 28 -1 27 C-1.32 24.94 -1.51 22.88 -1.72 20.81 C-1.82 18.98 -1.82 18.98 -3 18 C-5.35 17.93 -7.71 17.92 -10.06 17.94 C-11.35 17.95 -12.64 17.96 -13.97 17.96 C-14.97 17.98 -15.97 17.99 -17 18 C-17 19.32 -17 20.64 -17 22 C-14.03 22.33 -11.06 22.66 -8 23 C-7.67 24.65 -7.34 26.3 -7 28 C-9.65 28.03 -12.29 28.05 -14.94 28.06 C-15.69 28.07 -16.45 28.08 -17.22 28.09 C-19.15 28.1 -21.08 28.05 -23 28 C-24.93 26.07 -24.17 22.63 -24.19 20.06 C-24.2 18.8 -24.22 17.53 -24.23 16.22 C-24 13 -24 13 -22 11 C-19.85 10.77 -19.85 10.77 -17.21 10.8 C-16.27 10.81 -15.33 10.82 -14.36 10.82 C-13.37 10.84 -12.39 10.86 -11.38 10.88 C-10.38 10.88 -9.39 10.89 -8.37 10.9 C-5.91 10.93 -3.46 10.96 -1 11 C-1.01 10.29 -1.02 9.58 -1.04 8.85 C-1.04 7.93 -1.05 7.01 -1.06 6.06 C-1.07 5.15 -1.09 4.23 -1.1 3.29 C-1 1 -1 1 0 0 Z " fill="#FDFDFD" transform="translate(211,498)"/>
<path d="M0 0 C1.32 0.33 2.64 0.66 4 1 C4.33 7.6 4.66 14.2 5 21 C7.48 21.99 7.48 21.99 10 23 C10 16.07 10 9.14 10 2 C11.32 1.34 12.64 0.68 14 0 C15.58 1.58 15.22 3.28 15.32 5.47 C15.36 6.37 15.4 7.27 15.44 8.2 C15.48 9.14 15.52 10.09 15.56 11.06 C15.61 12.01 15.65 12.96 15.69 13.94 C15.8 16.29 15.9 18.65 16 21 C18.48 21.99 18.48 21.99 21 23 C20.98 22.06 20.98 22.06 20.97 21.1 C20.93 18.28 20.9 15.45 20.88 12.62 C20.86 11.64 20.84 10.66 20.82 9.64 C20.81 8.23 20.81 8.23 20.8 6.79 C20.79 5.49 20.79 5.49 20.77 4.15 C21 2 21 2 23 0 C24.32 0.33 25.64 0.66 27 1 C27 9.91 27 18.82 27 28 C22.59 28.02 18.17 28.04 13.62 28.06 C11.54 28.08 11.54 28.08 9.41 28.09 C7.77 28.09 7.77 28.09 6.1 28.1 C4.42 28.11 4.42 28.11 2.71 28.11 C0 28 0 28 -2 27 C-2.6 24.02 -2.74 21.04 -3 18 C-7.62 18 -12.24 18 -17 18 C-17 19.32 -17 20.64 -17 22 C-14.03 22.33 -11.06 22.66 -8 23 C-7.67 24.65 -7.34 26.3 -7 28 C-9.65 28.03 -12.29 28.05 -14.94 28.06 C-15.69 28.07 -16.45 28.08 -17.22 28.09 C-19.15 28.1 -21.08 28.05 -23 28 C-24 27 -24 27 -24.1 23.62 C-24.09 22.23 -24.08 20.83 -24.06 19.44 C-24.06 18.73 -24.05 18.02 -24.05 17.28 C-24.04 15.52 -24.02 13.76 -24 12 C-21.6 10.8 -20.11 10.89 -17.43 10.9 C-16.53 10.91 -15.64 10.91 -14.71 10.91 C-13.78 10.92 -12.84 10.93 -11.88 10.94 C-10.93 10.94 -9.99 10.95 -9.01 10.95 C-6.67 10.96 -4.34 10.98 -2 11 C-2.02 10.37 -2.05 9.75 -2.07 9.1 C-2.09 8.28 -2.11 7.47 -2.12 6.62 C-2.15 5.81 -2.17 5 -2.2 4.16 C-2 2 -2 2 0 0 Z " fill="#FCFCFC" transform="translate(325,498)"/>
<path d="M0 0 C1.32 0.66 2.64 1.32 4 2 C4.33 8.6 4.66 15.2 5 22 C6.32 22.33 7.64 22.66 9 23 C8.98 22.06 8.98 22.06 8.97 21.1 C8.93 18.28 8.9 15.45 8.88 12.62 C8.86 11.64 8.84 10.66 8.82 9.64 C8.81 8.23 8.81 8.23 8.8 6.79 C8.79 5.49 8.79 5.49 8.77 4.15 C9 2 9 2 11 0 C12.32 0.33 13.64 0.66 15 1 C15.49 11.4 15.49 11.4 16 22 C17.65 22.33 19.3 22.66 21 23 C21 15.74 21 8.48 21 1 C22.32 0.67 23.64 0.34 25 0 C26 1 26 1 26.11 3.59 C26.11 4.72 26.1 5.84 26.1 7 C26.09 8.22 26.09 9.43 26.09 10.69 C26.08 12.6 26.08 12.6 26.06 14.56 C26.06 15.85 26.05 17.13 26.05 18.45 C26.04 21.63 26.02 24.82 26 28 C21.52 28.03 17.04 28.05 12.56 28.06 C11.28 28.07 10 28.08 8.69 28.09 C6.86 28.09 6.86 28.09 5 28.1 C3.88 28.1 2.75 28.11 1.59 28.11 C-1 28 -1 28 -2 27 C-2.46 24.01 -2.7 21.01 -3 18 C-8.28 18 -13.56 18 -19 18 C-18.67 19.32 -18.34 20.64 -18 22 C-15.03 22.33 -12.06 22.66 -9 23 C-8.67 24.65 -8.34 26.3 -8 28 C-10.65 28.03 -13.29 28.05 -15.94 28.06 C-16.69 28.07 -17.45 28.08 -18.22 28.09 C-20.15 28.1 -22.08 28.05 -24 28 C-25.93 26.07 -25.17 22.63 -25.19 20.06 C-25.2 18.8 -25.22 17.53 -25.23 16.22 C-25 13 -25 13 -23 11 C-20.85 10.77 -20.85 10.77 -18.21 10.8 C-17.27 10.81 -16.33 10.82 -15.36 10.82 C-14.37 10.84 -13.39 10.86 -12.38 10.88 C-11.38 10.88 -10.39 10.89 -9.37 10.9 C-6.91 10.93 -4.46 10.96 -2 11 C-2.02 10.37 -2.05 9.75 -2.07 9.1 C-2.09 8.28 -2.11 7.47 -2.12 6.62 C-2.15 5.81 -2.17 5 -2.2 4.16 C-2 2 -2 2 0 0 Z " fill="#FDFDFD" transform="translate(1122,203)"/>
<path d="M0 0 C1.32 0.66 2.64 1.32 4 2 C4.33 8.6 4.66 15.2 5 22 C6.32 22.33 7.64 22.66 9 23 C8.98 22.06 8.98 22.06 8.97 21.1 C8.93 18.28 8.9 15.45 8.88 12.62 C8.86 11.64 8.84 10.66 8.82 9.64 C8.81 8.23 8.81 8.23 8.8 6.79 C8.79 5.49 8.79 5.49 8.77 4.15 C9 2 9 2 11 0 C12.32 0.33 13.64 0.66 15 1 C15.5 11.4 15.5 11.4 16 22 C17.65 22.33 19.3 22.66 21 23 C21 16.07 21 9.14 21 2 C22.32 1.34 23.64 0.68 25 0 C26 1 26 1 26.11 3.59 C26.11 4.72 26.1 5.84 26.1 7 C26.09 8.22 26.09 9.43 26.09 10.69 C26.08 12.6 26.08 12.6 26.06 14.56 C26.06 15.85 26.05 17.13 26.05 18.45 C26.04 21.63 26.02 24.82 26 28 C21.52 28.03 17.04 28.05 12.56 28.06 C11.28 28.07 10 28.08 8.69 28.09 C6.86 28.09 6.86 28.09 5 28.1 C3.88 28.1 2.75 28.11 1.59 28.11 C-1 28 -1 28 -2 27 C-2.46 24.01 -2.7 21.01 -3 18 C-7.62 18 -12.24 18 -17 18 C-17.33 19.32 -17.66 20.64 -18 22 C-15.03 22.33 -12.06 22.66 -9 23 C-8.67 24.65 -8.34 26.3 -8 28 C-10.65 28.03 -13.29 28.05 -15.94 28.06 C-16.69 28.07 -17.45 28.08 -18.22 28.09 C-20.15 28.1 -22.08 28.05 -24 28 C-25.93 26.07 -25.17 22.63 -25.19 20.06 C-25.2 18.8 -25.22 17.53 -25.23 16.22 C-25 13 -25 13 -23 11 C-20.85 10.77 -20.85 10.77 -18.21 10.8 C-17.27 10.81 -16.33 10.82 -15.36 10.82 C-14.37 10.84 -13.39 10.86 -12.38 10.88 C-11.38 10.88 -10.39 10.89 -9.37 10.9 C-6.91 10.93 -4.46 10.96 -2 11 C-2.02 10.37 -2.05 9.75 -2.07 9.1 C-2.09 8.28 -2.11 7.47 -2.12 6.62 C-2.15 5.81 -2.17 5 -2.2 4.16 C-2 2 -2 2 0 0 Z " fill="#FDFDFD" transform="translate(553,203)"/>
<path d="M0 0 C1.32 0.66 2.64 1.32 4 2 C4.33 8.6 4.66 15.2 5 22 C6.32 22.33 7.64 22.66 9 23 C8.98 22.06 8.98 22.06 8.97 21.1 C8.93 18.28 8.9 15.45 8.88 12.62 C8.86 11.64 8.84 10.66 8.82 9.64 C8.81 8.23 8.81 8.23 8.8 6.79 C8.79 5.49 8.79 5.49 8.77 4.15 C9 2 9 2 11 0 C12.32 0.33 13.64 0.66 15 1 C15.5 11.4 15.5 11.4 16 22 C17.65 22.33 19.3 22.66 21 23 C21 15.74 21 8.48 21 1 C22.32 0.67 23.64 0.34 25 0 C26 1 26 1 26.11 3.59 C26.11 4.72 26.1 5.84 26.1 7 C26.09 8.22 26.09 9.43 26.09 10.69 C26.08 12.6 26.08 12.6 26.06 14.56 C26.06 15.85 26.05 17.13 26.05 18.45 C26.04 21.63 26.02 24.82 26 28 C21.52 28.03 17.04 28.05 12.56 28.06 C11.28 28.07 10 28.08 8.69 28.09 C6.86 28.09 6.86 28.09 5 28.1 C3.88 28.1 2.75 28.11 1.59 28.11 C-1 28 -1 28 -2 27 C-2.46 24.01 -2.7 21.01 -3 18 C-8.28 18 -13.56 18 -19 18 C-18.67 19.32 -18.34 20.64 -18 22 C-15.03 22.33 -12.06 22.66 -9 23 C-8.67 24.65 -8.34 26.3 -8 28 C-10.65 28.03 -13.29 28.05 -15.94 28.06 C-16.69 28.07 -17.45 28.08 -18.22 28.09 C-20.15 28.1 -22.08 28.05 -24 28 C-25.93 26.07 -25.17 22.63 -25.19 20.06 C-25.2 18.8 -25.22 17.53 -25.23 16.22 C-25 13 -25 13 -23 11 C-20.85 10.77 -20.85 10.77 -18.21 10.8 C-17.27 10.81 -16.33 10.82 -15.36 10.82 C-14.37 10.84 -13.39 10.86 -12.38 10.88 C-11.38 10.88 -10.39 10.89 -9.37 10.9 C-6.91 10.93 -4.46 10.96 -2 11 C-2.02 10.37 -2.05 9.75 -2.07 9.1 C-2.09 8.28 -2.11 7.47 -2.12 6.62 C-2.15 5.81 -2.17 5 -2.2 4.16 C-2 2 -2 2 0 0 Z " fill="#FDFDFD" transform="translate(98,203)"/>
<path d="M0 0 C0.99 0.33 1.98 0.66 3 1 C3.33 7.93 3.66 14.86 4 22 C5.65 22.33 7.3 22.66 9 23 C9 16.07 9 9.14 9 2 C10.32 1.34 11.64 0.68 13 0 C15.44 2.44 15.29 3.21 15.41 6.57 C15.47 7.91 15.47 7.91 15.53 9.29 C15.56 10.22 15.59 11.16 15.62 12.12 C15.68 13.54 15.68 13.54 15.74 14.99 C15.84 17.33 15.92 19.66 16 22 C17.32 22.33 18.64 22.66 20 23 C19.98 22.06 19.98 22.06 19.97 21.1 C19.93 18.28 19.9 15.45 19.88 12.62 C19.86 11.64 19.84 10.66 19.82 9.64 C19.81 8.23 19.81 8.23 19.8 6.79 C19.79 5.49 19.79 5.49 19.77 4.15 C20 2 20 2 22 0 C23.32 0.33 24.64 0.66 26 1 C26 9.91 26 18.82 26 28 C21.57 28.02 17.13 28.04 12.56 28.06 C11.16 28.07 9.76 28.08 8.32 28.09 C6.68 28.09 6.68 28.09 5 28.1 C3.88 28.1 2.75 28.11 1.59 28.11 C-1 28 -1 28 -2 27 C-2.32 24.94 -2.51 22.88 -2.72 20.81 C-2.82 18.98 -2.82 18.98 -4 18 C-6.35 17.93 -8.71 17.92 -11.06 17.94 C-12.35 17.95 -13.64 17.96 -14.97 17.96 C-15.97 17.98 -16.97 17.99 -18 18 C-18.66 19.32 -19.32 20.64 -20 22 C-16.37 22.33 -12.74 22.66 -9 23 C-8.67 24.65 -8.34 26.3 -8 28 C-10.65 28.03 -13.29 28.05 -15.94 28.06 C-16.69 28.07 -17.45 28.08 -18.22 28.09 C-20.15 28.1 -22.08 28.05 -24 28 C-25.93 26.07 -25.17 22.63 -25.19 20.06 C-25.2 18.8 -25.22 17.53 -25.23 16.22 C-25 13 -25 13 -23 11 C-20.85 10.77 -20.85 10.77 -18.21 10.8 C-17.27 10.81 -16.33 10.82 -15.36 10.82 C-14.37 10.84 -13.39 10.86 -12.38 10.88 C-11.38 10.88 -10.39 10.89 -9.37 10.9 C-6.91 10.93 -4.46 10.96 -2 11 C-2 7.7 -2 4.4 -2 1 C-1.34 0.67 -0.68 0.34 0 0 Z " fill="#FDFDFD" transform="translate(1236,203)"/>
<path d="M0 0 C0.99 0.33 1.98 0.66 3 1 C3.33 7.93 3.66 14.86 4 22 C5.65 22.33 7.3 22.66 9 23 C9 16.07 9 9.14 9 2 C10.32 1.34 11.64 0.68 13 0 C15.44 2.44 15.29 3.21 15.41 6.57 C15.47 7.91 15.47 7.91 15.53 9.29 C15.56 10.22 15.59 11.16 15.62 12.12 C15.68 13.54 15.68 13.54 15.74 14.99 C15.84 17.33 15.92 19.66 16 22 C17.32 22.33 18.64 22.66 20 23 C19.98 22.06 19.98 22.06 19.97 21.1 C19.93 18.28 19.9 15.45 19.88 12.62 C19.86 11.64 19.84 10.66 19.82 9.64 C19.81 8.23 19.81 8.23 19.8 6.79 C19.79 5.49 19.79 5.49 19.77 4.15 C20 2 20 2 22 0 C23.32 0.33 24.64 0.66 26 1 C26 9.91 26 18.82 26 28 C21.57 28.02 17.13 28.04 12.56 28.06 C11.16 28.07 9.76 28.08 8.32 28.09 C6.68 28.09 6.68 28.09 5 28.1 C3.88 28.1 2.75 28.11 1.59 28.11 C-1 28 -1 28 -2 27 C-2.32 24.94 -2.51 22.88 -2.72 20.81 C-2.82 18.98 -2.82 18.98 -4 18 C-6.35 17.93 -8.71 17.92 -11.06 17.94 C-12.35 17.95 -13.64 17.96 -14.97 17.96 C-15.97 17.98 -16.97 17.99 -18 18 C-18.66 19.32 -19.32 20.64 -20 22 C-16.37 22.33 -12.74 22.66 -9 23 C-8.67 24.65 -8.34 26.3 -8 28 C-10.65 28.03 -13.29 28.05 -15.94 28.06 C-16.69 28.07 -17.45 28.08 -18.22 28.09 C-20.15 28.1 -22.08 28.05 -24 28 C-25.93 26.07 -25.17 22.63 -25.19 20.06 C-25.2 18.8 -25.22 17.53 -25.23 16.22 C-25 13 -25 13 -23 11 C-20.85 10.77 -20.85 10.77 -18.21 10.8 C-17.27 10.81 -16.33 10.82 -15.36 10.82 C-14.37 10.84 -13.39 10.86 -12.38 10.88 C-11.38 10.88 -10.39 10.89 -9.37 10.9 C-6.91 10.93 -4.46 10.96 -2 11 C-2 7.7 -2 4.4 -2 1 C-1.34 0.67 -0.68 0.34 0 0 Z " fill="#FDFDFD" transform="translate(212,203)"/>
<path d="M0 0 C1.32 0.33 2.64 0.66 4 1 C4.33 7.6 4.66 14.2 5 21 C6.32 21.33 7.64 21.66 9 22 C9.33 15.4 9.66 8.8 10 2 C11.32 1.34 12.64 0.68 14 0 C15.58 1.58 15.22 3.28 15.32 5.47 C15.36 6.37 15.4 7.27 15.44 8.2 C15.48 9.14 15.52 10.09 15.56 11.06 C15.61 12.01 15.65 12.96 15.69 13.94 C15.8 16.29 15.9 18.65 16 21 C18.48 21.99 18.48 21.99 21 23 C21 16.07 21 9.14 21 2 C22.32 1.34 23.64 0.68 25 0 C25.66 0.33 26.32 0.66 27 1 C27 9.91 27 18.82 27 28 C23.03 28.02 19.06 28.04 15.09 28.05 C13.74 28.06 12.39 28.07 11.04 28.08 C9.1 28.09 7.16 28.09 5.22 28.1 C3.47 28.11 3.47 28.11 1.68 28.11 C-1 28 -1 28 -2 27 C-2.46 24.01 -2.7 21.01 -3 18 C-7.62 18 -12.24 18 -17 18 C-17 19.32 -17 20.64 -17 22 C-14.36 22.33 -11.72 22.66 -9 23 C-8.67 24.65 -8.34 26.3 -8 28 C-10.48 28.03 -12.96 28.05 -15.44 28.06 C-16.14 28.07 -16.85 28.08 -17.58 28.09 C-19.39 28.1 -21.19 28.05 -23 28 C-24 27 -24 27 -24.1 23.62 C-24.09 22.23 -24.08 20.83 -24.06 19.44 C-24.06 18.73 -24.05 18.02 -24.05 17.28 C-24.04 15.52 -24.02 13.76 -24 12 C-21.6 10.8 -20.11 10.89 -17.43 10.9 C-16.53 10.91 -15.64 10.91 -14.71 10.91 C-13.78 10.92 -12.84 10.93 -11.88 10.94 C-10.93 10.94 -9.99 10.95 -9.01 10.95 C-6.67 10.96 -4.34 10.98 -2 11 C-2.02 10.37 -2.05 9.75 -2.07 9.1 C-2.09 8.28 -2.11 7.47 -2.12 6.62 C-2.15 5.81 -2.17 5 -2.2 4.16 C-2 2 -2 2 0 0 Z " fill="#FDFDFD" transform="translate(894,498)"/>
<path d="M0 0 C0.99 0.33 1.98 0.66 3 1 C3.33 7.93 3.66 14.86 4 22 C5.65 22.33 7.3 22.66 9 23 C9 16.07 9 9.14 9 2 C10.32 1.34 11.64 0.68 13 0 C15.44 2.44 15.29 3.21 15.41 6.57 C15.47 7.91 15.47 7.91 15.53 9.29 C15.56 10.22 15.59 11.16 15.62 12.12 C15.68 13.54 15.68 13.54 15.74 14.99 C15.84 17.33 15.92 19.66 16 22 C17.32 22.33 18.64 22.66 20 23 C19.98 22.06 19.98 22.06 19.97 21.1 C19.93 18.28 19.9 15.45 19.88 12.62 C19.86 11.64 19.84 10.66 19.82 9.64 C19.81 8.23 19.81 8.23 19.8 6.79 C19.79 5.49 19.79 5.49 19.77 4.15 C20 2 20 2 22 0 C23.32 0.33 24.64 0.66 26 1 C26 9.91 26 18.82 26 28 C21.57 28.02 17.13 28.04 12.56 28.06 C11.16 28.07 9.76 28.08 8.32 28.09 C6.68 28.09 6.68 28.09 5 28.1 C3.88 28.1 2.75 28.11 1.59 28.11 C-1 28 -1 28 -2 27 C-2.32 24.94 -2.51 22.88 -2.72 20.81 C-2.82 18.98 -2.82 18.98 -4 18 C-6.35 17.93 -8.71 17.92 -11.06 17.94 C-12.35 17.95 -13.64 17.96 -14.97 17.96 C-15.97 17.98 -16.97 17.99 -18 18 C-18.66 19.32 -19.32 20.64 -20 22 C-19.3 22.05 -18.6 22.1 -17.88 22.15 C-16.97 22.22 -16.06 22.3 -15.12 22.38 C-14.22 22.44 -13.32 22.51 -12.38 22.59 C-10 23 -10 23 -8 25 C-8 25.99 -8 26.98 -8 28 C-10.65 28.03 -13.29 28.05 -15.94 28.06 C-16.69 28.07 -17.45 28.08 -18.22 28.09 C-20.15 28.1 -22.08 28.05 -24 28 C-25.93 26.07 -25.17 22.63 -25.19 20.06 C-25.2 18.8 -25.22 17.53 -25.23 16.22 C-25 13 -25 13 -23 11 C-20.85 10.77 -20.85 10.77 -18.21 10.8 C-17.27 10.81 -16.33 10.82 -15.36 10.82 C-14.37 10.84 -13.39 10.86 -12.38 10.88 C-11.38 10.88 -10.39 10.89 -9.37 10.9 C-6.91 10.93 -4.46 10.96 -2 11 C-2 7.7 -2 4.4 -2 1 C-1.34 0.67 -0.68 0.34 0 0 Z " fill="#FDFDFD" transform="translate(781,203)"/>
<path d="M0 0 C1.32 0.33 2.64 0.66 4 1 C4.33 7.93 4.66 14.86 5 22 C6.65 22.33 8.3 22.66 10 23 C10 16.07 10 9.14 10 2 C11.32 1.34 12.64 0.68 14 0 C15 1 15 1 15.11 3.04 C15.11 3.92 15.1 4.79 15.1 5.69 C15.09 6.64 15.09 7.58 15.09 8.55 C15.08 10.04 15.08 10.04 15.06 11.56 C15.06 12.56 15.05 13.56 15.05 14.58 C15.04 17.06 15.02 19.53 15 22 C16.98 22.33 18.96 22.66 21 23 C20.98 22.06 20.98 22.06 20.97 21.1 C20.93 18.28 20.9 15.45 20.88 12.62 C20.86 11.64 20.84 10.66 20.82 9.64 C20.81 8.23 20.81 8.23 20.8 6.79 C20.79 5.49 20.79 5.49 20.77 4.15 C21 2 21 2 23 0 C24.32 0.33 25.64 0.66 27 1 C27 9.91 27 18.82 27 28 C23.03 28.02 19.06 28.04 15.09 28.05 C13.74 28.06 12.39 28.07 11.04 28.08 C9.1 28.09 7.16 28.09 5.22 28.1 C3.47 28.11 3.47 28.11 1.68 28.11 C-1 28 -1 28 -2 27 C-2.46 24.01 -2.7 21.01 -3 18 C-7.62 18 -12.24 18 -17 18 C-17.33 19.32 -17.66 20.64 -18 22 C-17.37 22.05 -16.75 22.1 -16.1 22.15 C-15.28 22.22 -14.47 22.3 -13.62 22.38 C-12.81 22.44 -12 22.51 -11.16 22.59 C-9 23 -9 23 -7 25 C-7 25.99 -7 26.98 -7 28 C-9.65 28.03 -12.29 28.05 -14.94 28.06 C-15.69 28.07 -16.45 28.08 -17.22 28.09 C-19.15 28.1 -21.08 28.05 -23 28 C-24 27 -24 27 -24.1 23.62 C-24.09 22.23 -24.08 20.83 -24.06 19.44 C-24.06 18.73 -24.05 18.02 -24.05 17.28 C-24.04 15.52 -24.02 13.76 -24 12 C-21.6 10.8 -20.11 10.89 -17.43 10.9 C-16.53 10.91 -15.64 10.91 -14.71 10.91 C-13.78 10.92 -12.84 10.93 -11.88 10.94 C-10.93 10.94 -9.99 10.95 -9.01 10.95 C-6.67 10.96 -4.34 10.98 -2 11 C-2.02 10.37 -2.05 9.75 -2.07 9.1 C-2.09 8.28 -2.11 7.47 -2.12 6.62 C-2.15 5.81 -2.17 5 -2.2 4.16 C-2 2 -2 2 0 0 Z " fill="#FDFDFD" transform="translate(325,203)"/>
<path d="M0 0 C0.99 0.33 1.98 0.66 3 1 C3.33 7.6 3.66 14.2 4 21 C6.48 21.99 6.48 21.99 9 23 C8.98 22.06 8.98 22.06 8.97 21.1 C8.93 18.28 8.9 15.45 8.88 12.62 C8.86 11.64 8.84 10.66 8.82 9.64 C8.81 8.23 8.81 8.23 8.8 6.79 C8.79 5.49 8.79 5.49 8.77 4.15 C9 2 9 2 11 0 C12.32 0.33 13.64 0.66 15 1 C15.33 7.6 15.66 14.2 16 21 C17.32 21.33 18.64 21.66 20 22 C19.98 20.75 19.95 19.49 19.93 18.2 C19.91 16.55 19.89 14.9 19.88 13.25 C19.86 12.43 19.84 11.6 19.82 10.75 C19.81 9.55 19.81 9.55 19.8 8.33 C19.79 7.23 19.79 7.23 19.77 6.11 C20.03 3.7 20.81 2.09 22 0 C23.32 0.33 24.64 0.66 26 1 C26 9.91 26 18.82 26 28 C21.57 28.02 17.13 28.04 12.56 28.06 C11.16 28.07 9.76 28.08 8.32 28.09 C6.68 28.09 6.68 28.09 5 28.1 C3.88 28.1 2.75 28.11 1.59 28.11 C-1 28 -1 28 -2 27 C-2.46 24.01 -2.7 21.01 -3 18 C-8.28 18 -13.56 18 -19 18 C-18.34 19.32 -17.68 20.64 -17 22 C-14.32 22.84 -11.83 22.82 -9 23 C-8.67 24.65 -8.34 26.3 -8 28 C-10.65 28.03 -13.29 28.05 -15.94 28.06 C-16.69 28.07 -17.45 28.08 -18.22 28.09 C-20.15 28.1 -22.08 28.05 -24 28 C-25.93 26.07 -25.17 22.63 -25.19 20.06 C-25.2 18.8 -25.22 17.53 -25.23 16.22 C-25 13 -25 13 -23 11 C-20.85 10.77 -20.85 10.77 -18.21 10.8 C-17.27 10.81 -16.33 10.82 -15.36 10.82 C-14.37 10.84 -13.39 10.86 -12.38 10.88 C-11.38 10.88 -10.39 10.89 -9.37 10.9 C-6.91 10.93 -4.46 10.96 -2 11 C-2.02 10.37 -2.05 9.75 -2.07 9.1 C-2.09 8.28 -2.11 7.47 -2.12 6.62 C-2.15 5.81 -2.17 5 -2.2 4.16 C-2 2 -2 2 0 0 Z " fill="#FDFDFD" transform="translate(667,498)"/>
<path d="M0 0 C1.32 0.66 2.64 1.32 4 2 C4.33 8.27 4.66 14.54 5 21 C6.32 21.33 7.64 21.66 9 22 C9.33 15.07 9.66 8.14 10 1 C11.32 0.67 12.64 0.34 14 0 C15.58 1.58 15.22 3.28 15.32 5.47 C15.36 6.37 15.4 7.27 15.44 8.2 C15.48 9.14 15.52 10.09 15.56 11.06 C15.61 12.01 15.65 12.96 15.69 13.94 C15.8 16.29 15.9 18.65 16 21 C18.47 21.99 18.47 21.99 21 23 C21 16.07 21 9.14 21 2 C22.32 1.34 23.64 0.68 25 0 C27.34 3.5 27.18 4.66 26.98 8.76 C26.92 9.88 26.87 11 26.82 12.15 C26.76 13.32 26.69 14.48 26.62 15.69 C26.54 17.46 26.54 17.46 26.45 19.26 C26.31 22.17 26.16 25.09 26 28 C21.52 28.03 17.04 28.05 12.56 28.06 C11.28 28.07 10 28.08 8.69 28.09 C6.86 28.09 6.86 28.09 5 28.1 C3.88 28.1 2.75 28.11 1.59 28.11 C-1 28 -1 28 -2 27 C-2.46 24.01 -2.7 21.01 -3 18 C-7.62 18 -12.24 18 -17 18 C-17 19.32 -17 20.64 -17 22 C-14.36 22.33 -11.72 22.66 -9 23 C-8.67 24.65 -8.34 26.3 -8 28 C-10.65 28.03 -13.29 28.05 -15.94 28.06 C-16.69 28.07 -17.45 28.08 -18.22 28.09 C-20.15 28.1 -22.08 28.05 -24 28 C-25.93 26.07 -25.17 22.63 -25.19 20.06 C-25.2 18.8 -25.22 17.53 -25.23 16.22 C-25 13 -25 13 -23 11 C-20.85 10.77 -20.85 10.77 -18.21 10.8 C-17.27 10.81 -16.33 10.82 -15.36 10.82 C-14.37 10.84 -13.39 10.86 -12.38 10.88 C-11.38 10.88 -10.39 10.89 -9.37 10.9 C-6.91 10.93 -4.46 10.96 -2 11 C-2.02 10.37 -2.05 9.75 -2.07 9.1 C-2.09 8.28 -2.11 7.47 -2.12 6.62 C-2.15 5.81 -2.17 5 -2.2 4.16 C-2 2 -2 2 0 0 Z " fill="#FDFDFD" transform="translate(1008,498)"/>
<path d="M0 0 C0.99 0.33 1.98 0.66 3 1 C3.33 7.6 3.66 14.2 4 21 C6.47 21.99 6.47 21.99 9 23 C8.98 22.06 8.98 22.06 8.97 21.1 C8.93 18.28 8.9 15.45 8.88 12.62 C8.86 11.64 8.84 10.66 8.82 9.64 C8.81 8.23 8.81 8.23 8.8 6.79 C8.79 5.49 8.79 5.49 8.77 4.15 C9 2 9 2 11 0 C12.32 0.33 13.64 0.66 15 1 C15.33 7.6 15.66 14.2 16 21 C17.32 21.33 18.64 21.66 20 22 C20.33 15.07 20.66 8.14 21 1 C22.32 0.67 23.64 0.34 25 0 C26 1 26 1 26.11 3.59 C26.11 4.72 26.1 5.84 26.1 7 C26.09 8.22 26.09 9.43 26.09 10.69 C26.08 12.6 26.08 12.6 26.06 14.56 C26.06 15.85 26.05 17.13 26.05 18.45 C26.04 21.63 26.02 24.82 26 28 C21.52 28.03 17.04 28.05 12.56 28.06 C11.28 28.07 10 28.08 8.69 28.09 C6.86 28.09 6.86 28.09 5 28.1 C3.88 28.1 2.75 28.11 1.59 28.11 C-1 28 -1 28 -2 27 C-2.46 24.01 -2.7 21.01 -3 18 C-8.28 18 -13.56 18 -19 18 C-18.34 19.32 -17.68 20.64 -17 22 C-14.32 22.84 -11.83 22.82 -9 23 C-8.67 24.65 -8.34 26.3 -8 28 C-10.65 28.03 -13.29 28.05 -15.94 28.06 C-16.69 28.07 -17.45 28.08 -18.22 28.09 C-20.15 28.1 -22.08 28.05 -24 28 C-25.93 26.07 -25.17 22.63 -25.19 20.06 C-25.2 18.8 -25.22 17.53 -25.23 16.22 C-25 13 -25 13 -23 11 C-20.85 10.77 -20.85 10.77 -18.21 10.8 C-17.27 10.81 -16.33 10.82 -15.36 10.82 C-14.37 10.84 -13.39 10.86 -12.38 10.88 C-11.38 10.88 -10.39 10.89 -9.37 10.9 C-6.91 10.93 -4.46 10.96 -2 11 C-2.02 10.37 -2.05 9.75 -2.07 9.1 C-2.09 8.28 -2.11 7.47 -2.12 6.62 C-2.15 5.81 -2.17 5 -2.2 4.16 C-2 2 -2 2 0 0 Z " fill="#FDFDFD" transform="translate(1122,498)"/>
<path d="M0 0 C0.99 0.33 1.98 0.66 3 1 C3.33 7.6 3.66 14.2 4 21 C6.47 21.99 6.47 21.99 9 23 C8.98 22.06 8.98 22.06 8.97 21.1 C8.93 18.28 8.9 15.45 8.88 12.62 C8.86 11.64 8.84 10.66 8.82 9.64 C8.81 8.23 8.81 8.23 8.8 6.79 C8.79 5.49 8.79 5.49 8.77 4.15 C9 2 9 2 11 0 C12.32 0.33 13.64 0.66 15 1 C15.33 7.6 15.66 14.2 16 21 C17.32 21.33 18.64 21.66 20 22 C20.33 15.07 20.66 8.14 21 1 C22.32 0.67 23.64 0.34 25 0 C26 1 26 1 26.11 3.59 C26.11 4.72 26.1 5.84 26.1 7 C26.09 8.22 26.09 9.43 26.09 10.69 C26.08 12.6 26.08 12.6 26.06 14.56 C26.06 15.85 26.05 17.13 26.05 18.45 C26.04 21.63 26.02 24.82 26 28 C21.52 28.03 17.04 28.05 12.56 28.06 C11.28 28.07 10 28.08 8.69 28.09 C6.86 28.09 6.86 28.09 5 28.1 C3.88 28.1 2.75 28.11 1.59 28.11 C-1 28 -1 28 -2 27 C-2.46 24.01 -2.7 21.01 -3 18 C-8.28 18 -13.56 18 -19 18 C-18.34 19.32 -17.68 20.64 -17 22 C-14.32 22.84 -11.83 22.82 -9 23 C-8.67 24.65 -8.34 26.3 -8 28 C-10.65 28.03 -13.29 28.05 -15.94 28.06 C-16.69 28.07 -17.45 28.08 -18.22 28.09 C-20.15 28.1 -22.08 28.05 -24 28 C-25.93 26.07 -25.17 22.63 -25.19 20.06 C-25.2 18.8 -25.22 17.53 -25.23 16.22 C-25 13 -25 13 -23 11 C-20.85 10.77 -20.85 10.77 -18.21 10.8 C-17.27 10.81 -16.33 10.82 -15.36 10.82 C-14.37 10.84 -13.39 10.86 -12.38 10.88 C-11.38 10.88 -10.39 10.89 -9.37 10.9 C-6.91 10.93 -4.46 10.96 -2 11 C-2.02 10.37 -2.05 9.75 -2.07 9.1 C-2.09 8.28 -2.11 7.47 -2.12 6.62 C-2.15 5.81 -2.17 5 -2.2 4.16 C-2 2 -2 2 0 0 Z " fill="#FDFDFD" transform="translate(98,498)"/>
<path d="M0 0 C0.99 0.33 1.98 0.66 3 1 C3 7.93 3 14.86 3 22 C4.98 22.33 6.96 22.66 9 23 C8.98 22.06 8.98 22.06 8.97 21.1 C8.93 18.28 8.9 15.45 8.88 12.62 C8.86 11.64 8.84 10.66 8.82 9.64 C8.81 8.23 8.81 8.23 8.8 6.79 C8.79 5.49 8.79 5.49 8.77 4.15 C9 2 9 2 11 0 C12.32 0.33 13.64 0.66 15 1 C15.5 11.4 15.5 11.4 16 22 C17.65 22.33 19.3 22.66 21 23 C21 15.74 21 8.48 21 1 C22.32 0.67 23.64 0.34 25 0 C26 1 26 1 26.11 3.59 C26.11 4.72 26.1 5.84 26.1 7 C26.09 8.22 26.09 9.43 26.09 10.69 C26.08 12.6 26.08 12.6 26.06 14.56 C26.06 15.85 26.05 17.13 26.05 18.45 C26.04 21.63 26.02 24.82 26 28 C21.52 28.03 17.04 28.05 12.56 28.06 C11.28 28.07 10 28.08 8.69 28.09 C6.86 28.09 6.86 28.09 5 28.1 C3.88 28.1 2.75 28.11 1.59 28.11 C-1 28 -1 28 -2 27 C-2.32 24.94 -2.51 22.88 -2.72 20.81 C-2.82 18.98 -2.82 18.98 -4 18 C-6.53 17.93 -9.03 17.91 -11.56 17.94 C-12.27 17.94 -12.98 17.95 -13.72 17.95 C-15.48 17.96 -17.24 17.98 -19 18 C-18.67 19.32 -18.34 20.64 -18 22 C-15.03 22.33 -12.06 22.66 -9 23 C-8.67 24.65 -8.34 26.3 -8 28 C-10.65 28.03 -13.29 28.05 -15.94 28.06 C-16.69 28.07 -17.45 28.08 -18.22 28.09 C-20.15 28.1 -22.08 28.05 -24 28 C-25.93 26.07 -25.17 22.63 -25.19 20.06 C-25.2 18.8 -25.22 17.53 -25.23 16.22 C-25 13 -25 13 -23 11 C-20.85 10.77 -20.85 10.77 -18.21 10.8 C-17.27 10.81 -16.33 10.82 -15.36 10.82 C-14.37 10.84 -13.39 10.86 -12.38 10.88 C-11.38 10.88 -10.39 10.89 -9.37 10.9 C-6.91 10.93 -4.46 10.96 -2 11 C-2 7.7 -2 4.4 -2 1 C-1.34 0.67 -0.68 0.34 0 0 Z " fill="#FDFDFD" transform="translate(667,203)"/>
<path d="M0 0 C1.32 0.66 2.64 1.32 4 2 C4.33 8.6 4.66 15.2 5 22 C6.65 22.33 8.3 22.66 10 23 C10 15.74 10 8.48 10 1 C11.32 0.67 12.64 0.34 14 0 C15.62 1.62 15.22 3.46 15.32 5.69 C15.36 6.64 15.4 7.58 15.44 8.55 C15.48 9.55 15.52 10.54 15.56 11.56 C15.61 12.56 15.65 13.56 15.69 14.58 C15.8 17.06 15.9 19.53 16 22 C17.65 22.33 19.3 22.66 21 23 C21 16.07 21 9.14 21 2 C22.32 1.34 23.64 0.68 25 0 C26 1 26 1 26.11 3.59 C26.11 4.72 26.1 5.84 26.1 7 C26.09 8.22 26.09 9.43 26.09 10.69 C26.08 12.6 26.08 12.6 26.06 14.56 C26.06 15.85 26.05 17.13 26.05 18.45 C26.04 21.63 26.02 24.82 26 28 C21.52 28.03 17.04 28.05 12.56 28.06 C11.28 28.07 10 28.08 8.69 28.09 C6.86 28.09 6.86 28.09 5 28.1 C3.88 28.1 2.75 28.11 1.59 28.11 C-1 28 -1 28 -2 27 C-2.46 24.01 -2.7 21.01 -3 18 C-7.62 18 -12.24 18 -17 18 C-17.33 19.32 -17.66 20.64 -18 22 C-15.03 22.33 -12.06 22.66 -9 23 C-8.67 24.65 -8.34 26.3 -8 28 C-10.65 28.03 -13.29 28.05 -15.94 28.06 C-16.69 28.07 -17.45 28.08 -18.22 28.09 C-20.15 28.1 -22.08 28.05 -24 28 C-25.93 26.07 -25.17 22.63 -25.19 20.06 C-25.2 18.8 -25.22 17.53 -25.23 16.22 C-25 13 -25 13 -23 11 C-20.85 10.77 -20.85 10.77 -18.21 10.8 C-17.27 10.81 -16.33 10.82 -15.36 10.82 C-14.37 10.84 -13.39 10.86 -12.38 10.88 C-11.38 10.88 -10.39 10.89 -9.37 10.9 C-6.91 10.93 -4.46 10.96 -2 11 C-2.02 10.37 -2.05 9.75 -2.07 9.1 C-2.09 8.28 -2.11 7.47 -2.12 6.62 C-2.15 5.81 -2.17 5 -2.2 4.16 C-2 2 -2 2 0 0 Z " fill="#FDFDFD" transform="translate(1008,203)"/>
<path d="M0 0 C1.07 0 2.14 0.01 3.25 0.01 C4.41 0.01 5.57 0.02 6.77 0.02 C7.99 0.03 9.21 0.04 10.46 0.06 C12.3 0.06 12.3 0.06 14.17 0.06 C23.26 0.1 23.26 0.1 24.4 1.24 C24.86 4.57 25.11 7.9 25.4 11.24 C30.68 11.57 35.96 11.9 41.4 12.24 C40.91 9.77 40.91 9.77 40.4 7.24 C37.43 6.91 34.46 6.58 31.4 6.24 C30.91 3.77 30.91 3.77 30.4 1.24 C33.39 -0.25 36.15 0.11 39.46 0.12 C40.73 0.12 42 0.11 43.31 0.11 C46.4 0.24 46.4 0.24 47.4 1.24 C47.48 3.94 47.49 6.61 47.46 9.31 C47.46 10.06 47.46 10.82 47.45 11.6 C47.44 13.48 47.42 15.36 47.4 17.24 C43.43 17.27 39.46 17.29 35.49 17.3 C34.14 17.3 32.79 17.31 31.44 17.32 C29.5 17.33 27.56 17.34 25.62 17.34 C23.87 17.35 23.87 17.35 22.09 17.36 C19.4 17.24 19.4 17.24 18.4 16.24 C18.17 14.73 17.99 13.21 17.84 11.68 C17.71 10.44 17.71 10.44 17.59 9.18 C17.53 8.54 17.46 7.9 17.4 7.24 C15.09 7.22 12.78 7.2 10.46 7.18 C8.53 7.16 8.53 7.16 6.56 7.15 C3.54 6.88 3.54 6.88 2.4 8.24 C2.17 9.76 1.99 11.28 1.84 12.81 C1.76 13.63 1.67 14.46 1.59 15.31 C1.53 15.95 1.46 16.59 1.4 17.24 C-0.26 17.29 -1.93 17.28 -3.6 17.24 C-5.53 15.31 -4.77 11.87 -4.79 9.31 C-4.8 8.04 -4.81 6.77 -4.83 5.47 C-4.54 1.5 -4.04 0.38 0 0 Z " fill="#FDFDFD" transform="translate(361.597900390625,213.757080078125)"/>
<path d="M0 0 C1.08 0.01 2.16 0.02 3.27 0.03 C5.02 0.04 5.02 0.04 6.8 0.05 C8.03 0.07 9.25 0.08 10.51 0.1 C11.74 0.11 12.97 0.12 14.24 0.13 C17.29 0.15 20.34 0.19 23.39 0.23 C23.59 1.29 23.59 1.29 23.79 2.38 C23.97 3.3 24.14 4.22 24.32 5.16 C24.5 6.08 24.67 7 24.85 7.94 C25.16 10.18 25.16 10.18 26.39 11.23 C28.91 11.46 31.42 11.65 33.95 11.79 C34.66 11.83 35.37 11.88 36.1 11.92 C37.86 12.03 39.63 12.13 41.39 12.23 C40.89 9.75 40.89 9.75 40.39 7.23 C37.42 6.9 34.45 6.57 31.39 6.23 C30.89 3.75 30.89 3.75 30.39 1.23 C33.23 -0.2 35.71 0.06 38.89 0.04 C40.05 0.03 41.22 0.01 42.42 -0 C45.39 0.23 45.39 0.23 47.39 2.23 C47.53 4.81 47.57 7.28 47.51 9.85 C47.5 10.56 47.49 11.26 47.48 11.99 C47.46 13.74 47.42 15.48 47.39 17.23 C43.42 17.25 39.45 17.27 35.48 17.28 C34.13 17.29 32.78 17.29 31.42 17.3 C29.49 17.31 27.55 17.32 25.61 17.32 C23.86 17.33 23.86 17.33 22.07 17.34 C19.39 17.23 19.39 17.23 18.39 16.23 C18.15 14.71 17.97 13.19 17.82 11.66 C17.7 10.43 17.7 10.43 17.57 9.16 C17.51 8.52 17.45 7.88 17.39 7.23 C15.07 7.2 12.76 7.18 10.45 7.16 C8.52 7.15 8.52 7.15 6.55 7.13 C3.52 6.86 3.52 6.86 2.39 8.23 C2.15 9.74 1.97 11.26 1.82 12.79 C1.74 13.62 1.66 14.44 1.57 15.29 C1.51 15.93 1.45 16.57 1.39 17.23 C-0.28 17.27 -1.95 17.27 -3.61 17.23 C-5.55 15.29 -4.79 11.85 -4.8 9.29 C-4.82 8.02 -4.83 6.76 -4.84 5.45 C-4.56 1.47 -4.06 0.35 0 0 Z " fill="#FDFDFD" transform="translate(930.61376953125,508.77294921875)"/>
<path d="M0 0 C1.07 0 2.14 0.01 3.25 0.01 C4.41 0.01 5.57 0.02 6.77 0.02 C7.99 0.03 9.21 0.04 10.46 0.06 C12.3 0.06 12.3 0.06 14.17 0.06 C23.26 0.1 23.26 0.1 24.4 1.24 C24.86 4.57 25.11 7.9 25.4 11.24 C30.68 11.57 35.96 11.9 41.4 12.24 C40.91 9.77 40.91 9.77 40.4 7.24 C37.43 6.91 34.46 6.58 31.4 6.24 C30.91 3.77 30.91 3.77 30.4 1.24 C33.25 -0.18 35.73 0.07 38.9 0.06 C40.07 0.04 41.23 0.03 42.43 0.01 C45.4 0.24 45.4 0.24 47.4 2.24 C47.55 4.82 47.59 7.29 47.53 9.87 C47.52 10.57 47.51 11.28 47.5 12.01 C47.48 13.75 47.44 15.5 47.4 17.24 C43.43 17.27 39.46 17.29 35.49 17.3 C34.14 17.3 32.79 17.31 31.44 17.32 C29.5 17.33 27.56 17.34 25.62 17.34 C23.87 17.35 23.87 17.35 22.09 17.36 C19.4 17.24 19.4 17.24 18.4 16.24 C18.17 14.73 17.99 13.21 17.84 11.68 C17.71 10.44 17.71 10.44 17.59 9.18 C17.53 8.54 17.46 7.9 17.4 7.24 C15.09 7.22 12.78 7.2 10.46 7.18 C8.53 7.16 8.53 7.16 6.56 7.15 C3.54 6.88 3.54 6.88 2.4 8.24 C2.17 9.76 1.99 11.28 1.84 12.81 C1.76 13.63 1.67 14.46 1.59 15.31 C1.53 15.95 1.46 16.59 1.4 17.24 C-0.26 17.29 -1.93 17.28 -3.6 17.24 C-5.53 15.31 -4.77 11.87 -4.79 9.31 C-4.8 8.04 -4.81 6.77 -4.83 5.47 C-4.54 1.5 -4.04 0.38 0 0 Z " fill="#FDFDFD" transform="translate(930.597900390625,213.757080078125)"/>
<path d="M0 0 C1.11 -0 2.22 -0.01 3.37 -0.01 C4.54 -0 5.7 0.01 6.91 0.02 C8.07 0.01 9.24 0 10.44 -0.01 C11.55 -0.01 12.67 -0 13.81 0 C14.84 0 15.86 0 16.92 0.01 C19.41 0.27 19.41 0.27 21.41 2.27 C21.98 5.25 22.15 8.23 22.41 11.27 C27.36 11.6 32.31 11.93 37.41 12.27 C36.91 9.79 36.91 9.79 36.41 7.27 C33.44 6.94 30.47 6.61 27.41 6.27 C26.91 4.29 26.91 4.29 26.41 2.27 C28.41 0.27 28.41 0.27 31.63 0.04 C33.53 0.06 33.53 0.06 35.47 0.08 C37.37 0.09 37.37 0.09 39.32 0.1 C42.41 0.27 42.41 0.27 43.41 1.27 C43.48 3.96 43.5 6.63 43.47 9.33 C43.46 10.09 43.46 10.85 43.46 11.63 C43.44 13.51 43.43 15.39 43.41 17.27 C38.93 17.29 34.45 17.31 29.97 17.33 C28.69 17.34 27.41 17.34 26.09 17.35 C24.27 17.36 24.27 17.36 22.41 17.36 C21.28 17.37 20.16 17.37 19 17.38 C16.41 17.27 16.41 17.27 15.41 16.27 C14.95 13.28 14.7 10.28 14.41 7.27 C9.13 7.27 3.85 7.27 -1.59 7.27 C-1.59 10.57 -1.59 13.87 -1.59 17.27 C-3.24 17.27 -4.89 17.27 -6.59 17.27 C-8.53 15.33 -7.77 11.89 -7.78 9.33 C-7.8 8.06 -7.81 6.79 -7.82 5.49 C-7.42 -0.12 -4.97 0.01 0 0 Z " fill="#FDFDFD" transform="translate(592.59375,213.734375)"/>
<path d="M0 0 C1.11 -0 2.22 -0.01 3.37 -0.01 C4.54 -0 5.7 0.01 6.91 0.02 C8.07 0.01 9.24 0 10.44 -0.01 C11.55 -0.01 12.67 -0 13.81 0 C14.84 0 15.86 0 16.92 0.01 C19.41 0.27 19.41 0.27 21.41 2.27 C21.79 4.18 21.79 4.18 21.97 6.33 C21.97 10.03 21.97 10.03 23.41 11.27 C25.93 11.5 28.44 11.69 30.97 11.83 C31.68 11.87 32.39 11.91 33.12 11.96 C34.88 12.07 36.65 12.17 38.41 12.27 C37.91 9.79 37.91 9.79 37.41 7.27 C34.11 6.94 30.81 6.61 27.41 6.27 C26.91 4.29 26.91 4.29 26.41 2.27 C28.41 0.27 28.41 0.27 31.63 0.04 C33.53 0.06 33.53 0.06 35.47 0.08 C37.37 0.09 37.37 0.09 39.32 0.1 C42.41 0.27 42.41 0.27 43.41 1.27 C43.48 3.96 43.5 6.63 43.47 9.33 C43.46 10.09 43.46 10.85 43.46 11.63 C43.44 13.51 43.43 15.39 43.41 17.27 C38.93 17.29 34.45 17.31 29.97 17.33 C28.69 17.34 27.41 17.34 26.09 17.35 C24.27 17.36 24.27 17.36 22.41 17.36 C21.28 17.37 20.16 17.37 19 17.38 C16.41 17.27 16.41 17.27 15.41 16.27 C15.17 14.75 14.99 13.23 14.84 11.7 C14.72 10.46 14.72 10.46 14.59 9.2 C14.53 8.56 14.47 7.92 14.41 7.27 C12.09 7.24 9.78 7.22 7.47 7.2 C5.54 7.19 5.54 7.19 3.57 7.17 C0.54 6.9 0.54 6.9 -0.59 8.27 C-0.83 9.78 -1.01 11.3 -1.16 12.83 C-1.24 13.65 -1.32 14.48 -1.41 15.33 C-1.47 15.97 -1.53 16.61 -1.59 17.27 C-3.26 17.31 -4.93 17.31 -6.59 17.27 C-8.53 15.33 -7.77 11.89 -7.78 9.33 C-7.8 8.06 -7.81 6.79 -7.82 5.49 C-7.42 -0.12 -4.97 0.01 0 0 Z " fill="#FDFDFD" transform="translate(1047.59375,508.734375)"/>
<path d="M0 0 C1.11 -0 2.22 -0.01 3.37 -0.01 C4.54 -0 5.7 0.01 6.91 0.02 C8.07 0.01 9.24 0 10.44 -0.01 C11.55 -0.01 12.67 -0 13.81 0 C14.84 0 15.86 0 16.92 0.01 C19.41 0.27 19.41 0.27 21.41 2.27 C21.79 4.18 21.79 4.18 21.97 6.33 C21.97 10.03 21.97 10.03 23.41 11.27 C25.93 11.5 28.44 11.69 30.97 11.83 C31.68 11.87 32.39 11.91 33.12 11.96 C34.88 12.07 36.65 12.17 38.41 12.27 C37.91 9.79 37.91 9.79 37.41 7.27 C34.11 6.94 30.81 6.61 27.41 6.27 C26.91 4.29 26.91 4.29 26.41 2.27 C28.41 0.27 28.41 0.27 31.63 0.04 C33.53 0.06 33.53 0.06 35.47 0.08 C37.37 0.09 37.37 0.09 39.32 0.1 C42.41 0.27 42.41 0.27 43.41 1.27 C43.48 3.96 43.5 6.63 43.47 9.33 C43.46 10.09 43.46 10.85 43.46 11.63 C43.44 13.51 43.43 15.39 43.41 17.27 C38.93 17.29 34.45 17.31 29.97 17.33 C28.69 17.34 27.41 17.34 26.09 17.35 C24.27 17.36 24.27 17.36 22.41 17.36 C21.28 17.37 20.16 17.37 19 17.38 C16.41 17.27 16.41 17.27 15.41 16.27 C15.17 14.75 14.99 13.23 14.84 11.7 C14.72 10.46 14.72 10.46 14.59 9.2 C14.53 8.56 14.47 7.92 14.41 7.27 C12.09 7.24 9.78 7.22 7.47 7.2 C5.54 7.19 5.54 7.19 3.57 7.17 C0.54 6.9 0.54 6.9 -0.59 8.27 C-0.83 9.78 -1.01 11.3 -1.16 12.83 C-1.24 13.65 -1.32 14.48 -1.41 15.33 C-1.47 15.97 -1.53 16.61 -1.59 17.27 C-3.26 17.31 -4.93 17.31 -6.59 17.27 C-8.53 15.33 -7.77 11.89 -7.78 9.33 C-7.8 8.06 -7.81 6.79 -7.82 5.49 C-7.42 -0.12 -4.97 0.01 0 0 Z " fill="#FDFDFD" transform="translate(23.59375,508.734375)"/>
<path d="M0 0 C1.11 -0 2.22 -0.01 3.37 -0.01 C4.54 -0 5.7 0.01 6.91 0.02 C8.07 0.01 9.24 0 10.44 -0.01 C11.55 -0.01 12.67 -0 13.81 0 C14.84 0 15.86 0 16.92 0.01 C19.41 0.27 19.41 0.27 21.41 2.27 C21.98 5.25 22.15 8.23 22.41 11.27 C27.69 11.6 32.97 11.93 38.41 12.27 C37.91 9.79 37.91 9.79 37.41 7.27 C34.11 6.94 30.81 6.61 27.41 6.27 C26.91 4.29 26.91 4.29 26.41 2.27 C28.41 0.27 28.41 0.27 31.63 0.04 C33.53 0.06 33.53 0.06 35.47 0.08 C37.37 0.09 37.37 0.09 39.32 0.1 C42.41 0.27 42.41 0.27 43.41 1.27 C43.48 3.96 43.5 6.63 43.47 9.33 C43.46 10.09 43.46 10.85 43.46 11.63 C43.44 13.51 43.43 15.39 43.41 17.27 C38.93 17.29 34.45 17.31 29.97 17.33 C28.69 17.34 27.41 17.34 26.09 17.35 C24.27 17.36 24.27 17.36 22.41 17.36 C21.28 17.37 20.16 17.37 19 17.38 C16.41 17.27 16.41 17.27 15.41 16.27 C15.17 14.75 14.99 13.23 14.84 11.7 C14.72 10.46 14.72 10.46 14.59 9.2 C14.53 8.56 14.47 7.92 14.41 7.27 C12.09 7.24 9.78 7.22 7.47 7.2 C5.54 7.19 5.54 7.19 3.57 7.17 C0.54 6.9 0.54 6.9 -0.59 8.27 C-0.83 9.78 -1.01 11.3 -1.16 12.83 C-1.24 13.65 -1.32 14.48 -1.41 15.33 C-1.47 15.97 -1.53 16.61 -1.59 17.27 C-3.26 17.31 -4.93 17.31 -6.59 17.27 C-8.53 15.33 -7.77 11.89 -7.78 9.33 C-7.8 8.06 -7.81 6.79 -7.82 5.49 C-7.42 -0.12 -4.97 0.01 0 0 Z " fill="#FDFDFD" transform="translate(1047.59375,213.734375)"/>
<path d="M0 0 C1.11 -0 2.22 -0.01 3.37 -0.01 C4.54 -0 5.7 0.01 6.91 0.02 C8.07 0.01 9.24 0 10.44 -0.01 C11.55 -0.01 12.67 -0 13.81 0 C14.84 0 15.86 0 16.92 0.01 C19.41 0.27 19.41 0.27 21.41 2.27 C21.98 5.25 22.15 8.23 22.41 11.27 C27.69 11.6 32.97 11.93 38.41 12.27 C37.91 9.79 37.91 9.79 37.41 7.27 C34.11 6.94 30.81 6.61 27.41 6.27 C26.91 4.29 26.91 4.29 26.41 2.27 C28.41 0.27 28.41 0.27 31.63 0.04 C33.53 0.06 33.53 0.06 35.47 0.08 C37.37 0.09 37.37 0.09 39.32 0.1 C42.41 0.27 42.41 0.27 43.41 1.27 C43.48 3.96 43.5 6.63 43.47 9.33 C43.46 10.09 43.46 10.85 43.46 11.63 C43.44 13.51 43.43 15.39 43.41 17.27 C38.93 17.29 34.45 17.31 29.97 17.33 C28.69 17.34 27.41 17.34 26.09 17.35 C24.27 17.36 24.27 17.36 22.41 17.36 C21.28 17.37 20.16 17.37 19 17.38 C16.41 17.27 16.41 17.27 15.41 16.27 C15.17 14.75 14.99 13.23 14.84 11.7 C14.72 10.46 14.72 10.46 14.59 9.2 C14.53 8.56 14.47 7.92 14.41 7.27 C12.09 7.24 9.78 7.22 7.47 7.2 C5.54 7.19 5.54 7.19 3.57 7.17 C0.54 6.9 0.54 6.9 -0.59 8.27 C-0.83 9.78 -1.01 11.3 -1.16 12.83 C-1.24 13.65 -1.32 14.48 -1.41 15.33 C-1.47 15.97 -1.53 16.61 -1.59 17.27 C-3.26 17.31 -4.93 17.31 -6.59 17.27 C-8.53 15.33 -7.77 11.89 -7.78 9.33 C-7.8 8.06 -7.81 6.79 -7.82 5.49 C-7.42 -0.12 -4.97 0.01 0 0 Z " fill="#FDFDFD" transform="translate(23.59375,213.734375)"/>
<path d="M0 0 C1.12 -0 2.23 -0 3.38 -0 C4.56 -0 5.73 0 6.93 0.01 C8.11 0 9.28 0 10.49 -0 C12.17 -0 12.17 -0 13.88 0 C14.9 0 15.93 0 16.99 0 C19.37 0.13 19.37 0.13 20.37 1.13 C20.69 3.45 20.88 5.77 21.09 8.1 C21.16 10.12 21.16 10.12 22.37 11.13 C24.9 11.37 27.4 11.55 29.93 11.7 C30.64 11.74 31.36 11.78 32.09 11.83 C33.85 11.93 35.61 12.03 37.37 12.13 C36.88 9.66 36.88 9.66 36.37 7.13 C33.4 6.8 30.43 6.47 27.37 6.13 C26.88 4.15 26.88 4.15 26.37 2.13 C28.37 0.13 28.37 0.13 31.59 -0.1 C33.49 -0.08 33.49 -0.08 35.43 -0.05 C37.34 -0.05 37.34 -0.05 39.28 -0.04 C42.37 0.13 42.37 0.13 43.37 1.13 C43.44 3.83 43.46 6.5 43.43 9.2 C43.43 9.95 43.42 10.71 43.42 11.49 C43.41 13.37 43.39 15.25 43.37 17.13 C38.91 17.16 34.45 17.18 30 17.2 C28.73 17.2 27.45 17.21 26.14 17.22 C24.33 17.23 24.33 17.23 22.47 17.23 C20.79 17.24 20.79 17.24 19.08 17.25 C16.37 17.13 16.37 17.13 14.37 16.13 C13.96 14.07 13.96 14.07 13.75 11.57 C13.67 10.74 13.6 9.92 13.52 9.07 C13.47 8.43 13.42 7.79 13.37 7.13 C11.06 7.11 8.75 7.09 6.43 7.07 C4.5 7.05 4.5 7.05 2.53 7.04 C-0.49 6.77 -0.49 6.77 -1.63 8.13 C-1.86 9.65 -2.04 11.17 -2.19 12.7 C-2.28 13.52 -2.36 14.35 -2.45 15.2 C-2.51 15.84 -2.57 16.48 -2.63 17.13 C-4.28 16.8 -5.93 16.47 -7.63 16.13 C-7.63 11.18 -7.63 6.23 -7.63 1.13 C-4.98 -0.19 -2.96 0 0 0 Z " fill="#FDFDFD" transform="translate(820.62890625,508.8671875)"/>
<path d="M0 0 C1.11 -0 2.22 -0.01 3.37 -0.01 C4.54 -0 5.7 0.01 6.91 0.02 C8.07 0.01 9.24 0 10.44 -0.01 C11.55 -0.01 12.67 -0 13.81 0 C14.84 0 15.86 0 16.92 0.01 C19.41 0.27 19.41 0.27 21.41 2.27 C21.79 4.18 21.79 4.18 21.97 6.33 C21.97 10.03 21.97 10.03 23.41 11.27 C25.93 11.5 28.44 11.69 30.97 11.83 C31.68 11.87 32.39 11.91 33.12 11.96 C34.88 12.07 36.65 12.17 38.41 12.27 C37.91 9.79 37.91 9.79 37.41 7.27 C34.44 6.94 31.47 6.61 28.41 6.27 C27.91 3.79 27.91 3.79 27.41 1.27 C30.27 -0.17 32.78 0.13 35.97 0.14 C37.73 0.14 37.73 0.14 39.54 0.13 C42.41 0.27 42.41 0.27 43.41 1.27 C43.48 3.96 43.5 6.63 43.47 9.33 C43.46 10.09 43.46 10.85 43.46 11.63 C43.44 13.51 43.43 15.39 43.41 17.27 C38.93 17.29 34.45 17.31 29.97 17.33 C28.69 17.34 27.41 17.34 26.09 17.35 C24.27 17.36 24.27 17.36 22.41 17.36 C21.28 17.37 20.16 17.37 19 17.38 C16.41 17.27 16.41 17.27 15.41 16.27 C15.17 14.75 14.99 13.23 14.84 11.7 C14.72 10.46 14.72 10.46 14.59 9.2 C14.53 8.56 14.47 7.92 14.41 7.27 C12.09 7.24 9.78 7.22 7.47 7.2 C5.54 7.19 5.54 7.19 3.57 7.17 C0.54 6.9 0.54 6.9 -0.59 8.27 C-0.83 9.78 -1.01 11.3 -1.16 12.83 C-1.24 13.65 -1.32 14.48 -1.41 15.33 C-1.47 15.97 -1.53 16.61 -1.59 17.27 C-3.26 17.31 -4.93 17.31 -6.59 17.27 C-8.53 15.33 -7.77 11.89 -7.78 9.33 C-7.8 8.06 -7.81 6.79 -7.82 5.49 C-7.42 -0.12 -4.97 0.01 0 0 Z " fill="#FDFDFD" transform="translate(478.59375,508.734375)"/>
<path d="M0 0 C1.12 -0 2.23 -0 3.38 -0 C4.56 -0 5.73 0 6.93 0.01 C8.11 0 9.28 0 10.49 -0 C12.17 -0 12.17 -0 13.88 0 C14.9 0 15.93 0 16.99 0 C19.37 0.13 19.37 0.13 20.37 1.13 C20.69 3.45 20.88 5.77 21.09 8.1 C21.16 10.12 21.16 10.12 22.37 11.13 C24.9 11.37 27.4 11.55 29.93 11.7 C30.64 11.74 31.36 11.78 32.09 11.83 C33.85 11.93 35.61 12.03 37.37 12.13 C36.88 9.66 36.88 9.66 36.37 7.13 C33.4 6.8 30.43 6.47 27.37 6.13 C26.88 4.15 26.88 4.15 26.37 2.13 C28.37 0.13 28.37 0.13 31.34 -0.13 C32.51 -0.13 33.67 -0.12 34.87 -0.12 C36.04 -0.12 37.2 -0.13 38.4 -0.13 C41.37 0.13 41.37 0.13 43.37 2.13 C43.52 4.71 43.56 7.18 43.5 9.76 C43.49 10.46 43.48 11.17 43.47 11.9 C43.45 13.64 43.41 15.39 43.37 17.13 C39.4 17.16 35.43 17.18 31.46 17.19 C30.11 17.19 28.76 17.2 27.41 17.21 C25.47 17.22 23.53 17.23 21.59 17.23 C19.84 17.24 19.84 17.24 18.05 17.25 C15.37 17.13 15.37 17.13 14.37 16.13 C14.14 14.62 13.96 13.1 13.81 11.57 C13.68 10.33 13.68 10.33 13.55 9.07 C13.49 8.43 13.43 7.79 13.37 7.13 C11.06 7.11 8.75 7.09 6.43 7.07 C4.5 7.05 4.5 7.05 2.53 7.04 C-0.49 6.77 -0.49 6.77 -1.63 8.13 C-1.86 9.65 -2.04 11.17 -2.19 12.7 C-2.28 13.52 -2.36 14.35 -2.45 15.2 C-2.51 15.84 -2.57 16.48 -2.63 17.13 C-4.28 16.8 -5.93 16.47 -7.63 16.13 C-7.63 11.18 -7.63 6.23 -7.63 1.13 C-4.98 -0.19 -2.96 0 0 0 Z " fill="#FDFDFD" transform="translate(365.62890625,508.8671875)"/>
<path d="M0 0 C1.12 -0 2.23 -0 3.38 -0 C4.56 -0 5.73 0 6.93 0.01 C8.11 0 9.28 0 10.49 -0 C12.17 -0 12.17 -0 13.88 0 C14.9 0 15.93 0 16.99 0 C19.37 0.13 19.37 0.13 20.37 1.13 C20.83 4.46 21.07 7.79 21.37 11.13 C26.65 11.46 31.93 11.79 37.37 12.13 C36.88 9.66 36.88 9.66 36.37 7.13 C33.4 6.8 30.43 6.47 27.37 6.13 C26.88 4.15 26.88 4.15 26.37 2.13 C28.37 0.13 28.37 0.13 31.59 -0.1 C33.49 -0.08 33.49 -0.08 35.43 -0.05 C37.34 -0.05 37.34 -0.05 39.28 -0.04 C42.37 0.13 42.37 0.13 43.37 1.13 C43.44 3.83 43.46 6.5 43.43 9.2 C43.43 9.95 43.42 10.71 43.42 11.49 C43.41 13.37 43.39 15.25 43.37 17.13 C39.4 17.16 35.43 17.18 31.46 17.19 C30.11 17.19 28.76 17.2 27.41 17.21 C25.47 17.22 23.53 17.23 21.59 17.23 C19.84 17.24 19.84 17.24 18.05 17.25 C15.37 17.13 15.37 17.13 14.37 16.13 C14.14 14.62 13.96 13.1 13.81 11.57 C13.68 10.33 13.68 10.33 13.55 9.07 C13.49 8.43 13.43 7.79 13.37 7.13 C11.06 7.11 8.75 7.09 6.43 7.07 C4.5 7.05 4.5 7.05 2.53 7.04 C-0.49 6.77 -0.49 6.77 -1.63 8.13 C-1.86 9.65 -2.04 11.17 -2.19 12.7 C-2.28 13.52 -2.36 14.35 -2.45 15.2 C-2.51 15.84 -2.57 16.48 -2.63 17.13 C-4.28 16.8 -5.93 16.47 -7.63 16.13 C-7.63 11.18 -7.63 6.23 -7.63 1.13 C-4.98 -0.19 -2.96 0 0 0 Z " fill="#FDFDFD" transform="translate(820.62890625,213.8671875)"/>
<path d="M0 0 C1.11 -0 2.22 -0.01 3.37 -0.01 C4.54 -0 5.7 0.01 6.91 0.02 C8.07 0.01 9.24 0 10.44 -0.01 C11.55 -0.01 12.67 -0 13.81 0 C14.84 0 15.86 0 16.92 0.01 C19.41 0.27 19.41 0.27 21.41 2.27 C21.98 5.25 22.15 8.23 22.41 11.27 C27.69 11.6 32.97 11.93 38.41 12.27 C37.91 9.79 37.91 9.79 37.41 7.27 C34.44 6.94 31.47 6.61 28.41 6.27 C27.91 3.79 27.91 3.79 27.41 1.27 C30.27 -0.17 32.78 0.13 35.97 0.14 C37.73 0.14 37.73 0.14 39.54 0.13 C42.41 0.27 42.41 0.27 43.41 1.27 C43.48 3.96 43.5 6.63 43.47 9.33 C43.46 10.09 43.46 10.85 43.46 11.63 C43.44 13.51 43.43 15.39 43.41 17.27 C38.93 17.29 34.45 17.31 29.97 17.33 C28.69 17.34 27.41 17.34 26.09 17.35 C24.27 17.36 24.27 17.36 22.41 17.36 C21.28 17.37 20.16 17.37 19 17.38 C16.41 17.27 16.41 17.27 15.41 16.27 C15.17 14.75 14.99 13.23 14.84 11.7 C14.72 10.46 14.72 10.46 14.59 9.2 C14.53 8.56 14.47 7.92 14.41 7.27 C12.09 7.24 9.78 7.22 7.47 7.2 C5.54 7.19 5.54 7.19 3.57 7.17 C0.54 6.9 0.54 6.9 -0.59 8.27 C-0.83 9.78 -1.01 11.3 -1.16 12.83 C-1.24 13.65 -1.32 14.48 -1.41 15.33 C-1.47 15.97 -1.53 16.61 -1.59 17.27 C-3.26 17.31 -4.93 17.31 -6.59 17.27 C-8.53 15.33 -7.77 11.89 -7.78 9.33 C-7.8 8.06 -7.81 6.79 -7.82 5.49 C-7.42 -0.12 -4.97 0.01 0 0 Z " fill="#FDFDFD" transform="translate(478.59375,213.734375)"/>
<path d="M0 0 C1.03 0 2.06 0.01 3.12 0.01 C4.24 0.01 5.36 0.02 6.51 0.02 C8.26 0.04 8.26 0.04 10.06 0.06 C11.23 0.06 12.41 0.06 13.62 0.06 C22.35 0.1 22.35 0.1 23.49 1.24 C23.81 3.56 24.01 5.88 24.21 8.21 C24.28 10.23 24.28 10.23 25.49 11.24 C28.02 11.32 30.53 11.34 33.06 11.31 C33.77 11.3 34.48 11.3 35.21 11.29 C36.97 11.28 38.73 11.26 40.49 11.24 C40 9.26 40 9.26 39.49 7.24 C36.52 6.91 33.55 6.58 30.49 6.24 C30 4.26 30 4.26 29.49 2.24 C31.49 0.24 31.49 0.24 34.72 0.01 C36.62 0.03 36.62 0.03 38.56 0.06 C40.46 0.07 40.46 0.07 42.4 0.07 C45.49 0.24 45.49 0.24 46.49 1.24 C46.57 3.94 46.59 6.61 46.56 9.31 C46.55 10.06 46.55 10.82 46.54 11.6 C46.53 13.48 46.51 15.36 46.49 17.24 C42.01 17.27 37.54 17.29 33.06 17.31 C31.78 17.31 30.5 17.32 29.18 17.33 C27.36 17.34 27.36 17.34 25.5 17.34 C24.37 17.35 23.25 17.35 22.09 17.36 C19.49 17.24 19.49 17.24 18.49 16.24 C18.04 13.25 17.79 10.25 17.49 7.24 C12.21 7.24 6.93 7.24 1.49 7.24 C1.49 10.54 1.49 13.84 1.49 17.24 C-0.16 17.24 -1.81 17.24 -3.51 17.24 C-5.44 15.31 -4.68 11.87 -4.69 9.31 C-4.71 8.04 -4.72 6.77 -4.74 5.47 C-4.46 1.57 -3.99 0.39 0 0 Z " fill="#FDFDFD" transform="translate(1158.506103515625,508.757080078125)"/>
<path d="M0 0 C1.03 0 2.06 0.01 3.12 0.01 C4.24 0.01 5.36 0.02 6.51 0.02 C8.26 0.04 8.26 0.04 10.06 0.06 C11.23 0.06 12.41 0.06 13.62 0.06 C22.35 0.1 22.35 0.1 23.49 1.24 C23.81 3.56 24.01 5.88 24.21 8.21 C24.28 10.23 24.28 10.23 25.49 11.24 C28.02 11.32 30.53 11.34 33.06 11.31 C33.77 11.3 34.48 11.3 35.21 11.29 C36.97 11.28 38.73 11.26 40.49 11.24 C40 9.26 40 9.26 39.49 7.24 C36.52 6.91 33.55 6.58 30.49 6.24 C30 4.26 30 4.26 29.49 2.24 C31.49 0.24 31.49 0.24 34.72 0.01 C36.62 0.03 36.62 0.03 38.56 0.06 C40.46 0.07 40.46 0.07 42.4 0.07 C45.49 0.24 45.49 0.24 46.49 1.24 C46.57 3.94 46.59 6.61 46.56 9.31 C46.55 10.06 46.55 10.82 46.54 11.6 C46.53 13.48 46.51 15.36 46.49 17.24 C42.01 17.27 37.54 17.29 33.06 17.31 C31.78 17.31 30.5 17.32 29.18 17.33 C27.36 17.34 27.36 17.34 25.5 17.34 C24.37 17.35 23.25 17.35 22.09 17.36 C19.49 17.24 19.49 17.24 18.49 16.24 C18.04 13.25 17.79 10.25 17.49 7.24 C12.21 7.24 6.93 7.24 1.49 7.24 C1.49 10.54 1.49 13.84 1.49 17.24 C-0.16 17.24 -1.81 17.24 -3.51 17.24 C-5.44 15.31 -4.68 11.87 -4.69 9.31 C-4.71 8.04 -4.72 6.77 -4.74 5.47 C-4.46 1.57 -3.99 0.39 0 0 Z " fill="#FDFDFD" transform="translate(134.506103515625,508.757080078125)"/>
<path d="M0 0 C1.03 0 2.06 0.01 3.12 0.01 C4.24 0.01 5.36 0.02 6.51 0.02 C8.26 0.04 8.26 0.04 10.06 0.06 C11.23 0.06 12.41 0.06 13.62 0.06 C22.35 0.1 22.35 0.1 23.49 1.24 C23.64 4.58 23.54 7.9 23.49 11.24 C29.43 11.57 35.37 11.9 41.49 12.24 C40.83 10.59 40.17 8.94 39.49 7.24 C36.52 6.91 33.55 6.58 30.49 6.24 C30 4.26 30 4.26 29.49 2.24 C31.49 0.24 31.49 0.24 34.72 0.01 C36.62 0.03 36.62 0.03 38.56 0.06 C40.46 0.07 40.46 0.07 42.4 0.07 C45.49 0.24 45.49 0.24 46.49 1.24 C46.57 3.94 46.59 6.61 46.56 9.31 C46.55 10.06 46.55 10.82 46.54 11.6 C46.53 13.48 46.51 15.36 46.49 17.24 C42.01 17.27 37.54 17.29 33.06 17.31 C31.78 17.31 30.5 17.32 29.18 17.33 C27.36 17.34 27.36 17.34 25.5 17.34 C24.37 17.35 23.25 17.35 22.09 17.36 C19.49 17.24 19.49 17.24 18.49 16.24 C18.17 14.19 17.98 12.13 17.78 10.06 C17.67 8.23 17.67 8.23 16.49 7.24 C13.96 7.17 11.46 7.15 8.93 7.18 C7.87 7.19 7.87 7.19 6.78 7.19 C5.02 7.21 3.25 7.22 1.49 7.24 C1.49 10.54 1.49 13.84 1.49 17.24 C-0.16 17.24 -1.81 17.24 -3.51 17.24 C-5.44 15.31 -4.68 11.87 -4.69 9.31 C-4.71 8.04 -4.72 6.77 -4.74 5.47 C-4.46 1.57 -3.99 0.39 0 0 Z " fill="#FDFDFD" transform="translate(1158.506103515625,213.757080078125)"/>
<path d="M0 0 C1.03 0 2.06 0.01 3.12 0.01 C4.24 0.01 5.36 0.02 6.51 0.02 C8.26 0.04 8.26 0.04 10.06 0.06 C11.23 0.06 12.41 0.06 13.62 0.06 C22.35 0.1 22.35 0.1 23.49 1.24 C23.64 4.58 23.54 7.9 23.49 11.24 C29.43 11.57 35.37 11.9 41.49 12.24 C40.83 10.59 40.17 8.94 39.49 7.24 C36.52 6.91 33.55 6.58 30.49 6.24 C30 4.26 30 4.26 29.49 2.24 C31.49 0.24 31.49 0.24 34.72 0.01 C36.62 0.03 36.62 0.03 38.56 0.06 C40.46 0.07 40.46 0.07 42.4 0.07 C45.49 0.24 45.49 0.24 46.49 1.24 C46.57 3.94 46.59 6.61 46.56 9.31 C46.55 10.06 46.55 10.82 46.54 11.6 C46.53 13.48 46.51 15.36 46.49 17.24 C42.01 17.27 37.54 17.29 33.06 17.31 C31.78 17.31 30.5 17.32 29.18 17.33 C27.36 17.34 27.36 17.34 25.5 17.34 C24.37 17.35 23.25 17.35 22.09 17.36 C19.49 17.24 19.49 17.24 18.49 16.24 C18.17 14.19 17.98 12.13 17.78 10.06 C17.67 8.23 17.67 8.23 16.49 7.24 C13.96 7.17 11.46 7.15 8.93 7.18 C7.87 7.19 7.87 7.19 6.78 7.19 C5.02 7.21 3.25 7.22 1.49 7.24 C1.49 10.54 1.49 13.84 1.49 17.24 C-0.16 17.24 -1.81 17.24 -3.51 17.24 C-5.44 15.31 -4.68 11.87 -4.69 9.31 C-4.71 8.04 -4.72 6.77 -4.74 5.47 C-4.46 1.57 -3.99 0.39 0 0 Z " fill="#FDFDFD" transform="translate(134.506103515625,213.757080078125)"/>
<path d="M0 0 C1.03 0 2.06 0.01 3.12 0.01 C4.24 0.01 5.36 0.02 6.51 0.02 C8.26 0.04 8.26 0.04 10.06 0.06 C11.23 0.06 12.41 0.06 13.62 0.06 C22.35 0.1 22.35 0.1 23.49 1.24 C23.81 3.56 24.01 5.88 24.21 8.21 C24.28 10.23 24.28 10.23 25.49 11.24 C28.02 11.32 30.53 11.34 33.06 11.31 C33.77 11.3 34.48 11.3 35.21 11.29 C36.97 11.28 38.73 11.26 40.49 11.24 C40 9.26 40 9.26 39.49 7.24 C34.54 6.25 34.54 6.25 29.49 5.24 C30.49 1.24 30.49 1.24 31.49 0.24 C33.83 0.14 36.16 0.11 38.49 0.12 C39.77 0.12 41.05 0.11 42.37 0.11 C45.49 0.24 45.49 0.24 46.49 1.24 C46.57 3.94 46.59 6.61 46.56 9.31 C46.55 10.06 46.55 10.82 46.54 11.6 C46.53 13.48 46.51 15.36 46.49 17.24 C42.01 17.27 37.54 17.29 33.06 17.31 C31.78 17.31 30.5 17.32 29.18 17.33 C27.36 17.34 27.36 17.34 25.5 17.34 C24.37 17.35 23.25 17.35 22.09 17.36 C19.49 17.24 19.49 17.24 18.49 16.24 C18.04 13.25 17.79 10.25 17.49 7.24 C12.21 7.24 6.93 7.24 1.49 7.24 C1.49 10.54 1.49 13.84 1.49 17.24 C-0.16 17.24 -1.81 17.24 -3.51 17.24 C-5.44 15.31 -4.68 11.87 -4.69 9.31 C-4.71 8.04 -4.72 6.77 -4.74 5.47 C-4.46 1.57 -3.99 0.39 0 0 Z " fill="#FDFDFD" transform="translate(589.506103515625,508.757080078125)"/>
<path d="M0 0 C1.03 0 2.06 0.01 3.12 0.01 C4.24 0.01 5.36 0.02 6.51 0.02 C8.26 0.04 8.26 0.04 10.06 0.06 C11.23 0.06 12.41 0.06 13.62 0.06 C22.35 0.1 22.35 0.1 23.49 1.24 C23.81 3.56 24.01 5.88 24.21 8.21 C24.28 10.23 24.28 10.23 25.49 11.24 C28.02 11.48 30.52 11.66 33.06 11.81 C33.77 11.85 34.48 11.89 35.21 11.94 C36.97 12.04 38.73 12.14 40.49 12.24 C40 9.77 40 9.77 39.49 7.24 C36.52 6.91 33.55 6.58 30.49 6.24 C30 4.26 30 4.26 29.49 2.24 C31.49 0.24 31.49 0.24 34.72 0.01 C36.62 0.03 36.62 0.03 38.56 0.06 C40.46 0.07 40.46 0.07 42.4 0.07 C45.49 0.24 45.49 0.24 46.49 1.24 C46.57 3.94 46.59 6.61 46.56 9.31 C46.55 10.06 46.55 10.82 46.54 11.6 C46.53 13.48 46.51 15.36 46.49 17.24 C42.01 17.27 37.54 17.29 33.06 17.31 C31.78 17.31 30.5 17.32 29.18 17.33 C27.36 17.34 27.36 17.34 25.5 17.34 C24.37 17.35 23.25 17.35 22.09 17.36 C19.49 17.24 19.49 17.24 18.49 16.24 C18.17 14.19 17.98 12.13 17.78 10.06 C17.67 8.23 17.67 8.23 16.49 7.24 C14.16 7.14 11.83 7.11 9.49 7.12 C8.22 7.12 6.94 7.11 5.62 7.11 C2.63 6.88 2.63 6.88 1.49 8.24 C1.26 9.76 1.08 11.28 0.93 12.81 C0.85 13.63 0.76 14.46 0.68 15.31 C0.62 15.95 0.56 16.59 0.49 17.24 C-1.16 16.91 -2.81 16.58 -4.51 16.24 C-4.56 13.95 -4.6 11.66 -4.63 9.37 C-4.65 8.09 -4.68 6.82 -4.7 5.5 C-4.47 1.58 -4.01 0.39 0 0 Z " fill="#FDFDFD" transform="translate(248.506103515625,508.757080078125)"/>
<path d="M0 0 C1.03 0 2.06 0.01 3.12 0.01 C4.24 0.01 5.36 0.02 6.51 0.02 C8.26 0.04 8.26 0.04 10.06 0.06 C11.23 0.06 12.41 0.06 13.62 0.06 C22.35 0.1 22.35 0.1 23.49 1.24 C23.81 3.56 24.01 5.88 24.21 8.21 C24.28 10.23 24.28 10.23 25.49 11.24 C28.02 11.48 30.52 11.66 33.06 11.81 C33.77 11.85 34.48 11.89 35.21 11.94 C36.97 12.04 38.73 12.14 40.49 12.24 C40 9.77 40 9.77 39.49 7.24 C36.52 6.91 33.55 6.58 30.49 6.24 C30 4.26 30 4.26 29.49 2.24 C31.49 0.24 31.49 0.24 34.72 0.01 C36.62 0.03 36.62 0.03 38.56 0.06 C40.46 0.07 40.46 0.07 42.4 0.07 C45.49 0.24 45.49 0.24 46.49 1.24 C46.57 3.94 46.59 6.61 46.56 9.31 C46.55 10.06 46.55 10.82 46.54 11.6 C46.53 13.48 46.51 15.36 46.49 17.24 C42.01 17.27 37.54 17.29 33.06 17.31 C31.78 17.31 30.5 17.32 29.18 17.33 C27.36 17.34 27.36 17.34 25.5 17.34 C24.37 17.35 23.25 17.35 22.09 17.36 C19.49 17.24 19.49 17.24 18.49 16.24 C18.17 14.19 17.98 12.13 17.78 10.06 C17.67 8.23 17.67 8.23 16.49 7.24 C14.16 7.14 11.83 7.11 9.49 7.12 C8.22 7.12 6.94 7.11 5.62 7.11 C2.63 6.88 2.63 6.88 1.49 8.24 C1.26 9.76 1.08 11.28 0.93 12.81 C0.85 13.63 0.76 14.46 0.68 15.31 C0.62 15.95 0.56 16.59 0.49 17.24 C-1.16 16.91 -2.81 16.58 -4.51 16.24 C-4.56 13.95 -4.6 11.66 -4.63 9.37 C-4.65 8.09 -4.68 6.82 -4.7 5.5 C-4.47 1.58 -4.01 0.39 0 0 Z " fill="#FCFCFC" transform="translate(703.506103515625,508.757080078125)"/>
<path d="M0 0 C1.03 0 2.06 0.01 3.12 0.01 C4.24 0.01 5.36 0.02 6.51 0.02 C8.26 0.04 8.26 0.04 10.06 0.06 C11.23 0.06 12.41 0.06 13.62 0.06 C22.35 0.1 22.35 0.1 23.49 1.24 C23.95 4.57 24.2 7.9 24.49 11.24 C29.77 11.57 35.05 11.9 40.49 12.24 C40 9.77 40 9.77 39.49 7.24 C36.52 6.91 33.55 6.58 30.49 6.24 C30 4.26 30 4.26 29.49 2.24 C31.49 0.24 31.49 0.24 34.72 0.01 C36.62 0.03 36.62 0.03 38.56 0.06 C40.46 0.07 40.46 0.07 42.4 0.07 C45.49 0.24 45.49 0.24 46.49 1.24 C46.57 3.94 46.59 6.61 46.56 9.31 C46.55 10.06 46.55 10.82 46.54 11.6 C46.53 13.48 46.51 15.36 46.49 17.24 C42.01 17.27 37.54 17.29 33.06 17.31 C31.78 17.31 30.5 17.32 29.18 17.33 C27.36 17.34 27.36 17.34 25.5 17.34 C24.37 17.35 23.25 17.35 22.09 17.36 C19.49 17.24 19.49 17.24 18.49 16.24 C18.17 14.19 17.98 12.13 17.78 10.06 C17.67 8.23 17.67 8.23 16.49 7.24 C14.16 7.14 11.83 7.11 9.49 7.12 C8.22 7.12 6.94 7.11 5.62 7.11 C2.63 6.88 2.63 6.88 1.49 8.24 C1.26 9.76 1.08 11.28 0.93 12.81 C0.85 13.63 0.76 14.46 0.68 15.31 C0.62 15.95 0.56 16.59 0.49 17.24 C-1.16 16.91 -2.81 16.58 -4.51 16.24 C-4.56 13.95 -4.6 11.66 -4.63 9.37 C-4.65 8.09 -4.68 6.82 -4.7 5.5 C-4.47 1.58 -4.01 0.39 0 0 Z " fill="#FDFDFD" transform="translate(703.506103515625,213.757080078125)"/>
<path d="M0 0 C1.03 0 2.06 0.01 3.12 0.01 C4.24 0.01 5.36 0.02 6.51 0.02 C8.26 0.04 8.26 0.04 10.06 0.06 C11.23 0.06 12.41 0.06 13.62 0.06 C22.35 0.1 22.35 0.1 23.49 1.24 C23.95 4.57 24.2 7.9 24.49 11.24 C29.77 11.57 35.05 11.9 40.49 12.24 C40 9.77 40 9.77 39.49 7.24 C36.52 6.91 33.55 6.58 30.49 6.24 C30 4.26 30 4.26 29.49 2.24 C31.49 0.24 31.49 0.24 34.72 0.01 C36.62 0.03 36.62 0.03 38.56 0.06 C40.46 0.07 40.46 0.07 42.4 0.07 C45.49 0.24 45.49 0.24 46.49 1.24 C46.57 3.94 46.59 6.61 46.56 9.31 C46.55 10.06 46.55 10.82 46.54 11.6 C46.53 13.48 46.51 15.36 46.49 17.24 C42.01 17.27 37.54 17.29 33.06 17.31 C31.78 17.31 30.5 17.32 29.18 17.33 C27.36 17.34 27.36 17.34 25.5 17.34 C24.37 17.35 23.25 17.35 22.09 17.36 C19.49 17.24 19.49 17.24 18.49 16.24 C18.17 14.19 17.98 12.13 17.78 10.06 C17.67 8.23 17.67 8.23 16.49 7.24 C14.16 7.14 11.83 7.11 9.49 7.12 C8.22 7.12 6.94 7.11 5.62 7.11 C2.63 6.88 2.63 6.88 1.49 8.24 C1.26 9.76 1.08 11.28 0.93 12.81 C0.85 13.63 0.76 14.46 0.68 15.31 C0.62 15.95 0.56 16.59 0.49 17.24 C-1.16 16.91 -2.81 16.58 -4.51 16.24 C-4.56 13.95 -4.6 11.66 -4.63 9.37 C-4.65 8.09 -4.68 6.82 -4.7 5.5 C-4.47 1.58 -4.01 0.39 0 0 Z " fill="#FDFDFD" transform="translate(248.506103515625,213.757080078125)"/>
<path d="M0 0 C1.88 0 1.88 0 3.8 0 C4.49 0 5.18 0 5.89 -0 C8.18 -0.01 10.47 0.01 12.76 0.02 C14.35 0.02 15.94 0.02 17.52 0.02 C20.85 0.02 24.17 0.03 27.5 0.04 C31.77 0.06 36.05 0.06 40.32 0.06 C43.6 0.06 46.87 0.07 50.15 0.07 C51.72 0.08 53.3 0.08 54.88 0.08 C57.08 0.08 59.27 0.09 61.47 0.1 C63.35 0.11 63.35 0.11 65.27 0.11 C68.07 0.25 68.07 0.25 69.07 1.25 C69.07 2.9 69.07 4.55 69.07 6.25 C45.31 6.25 21.55 6.25 -2.93 6.25 C-3.59 4.93 -4.25 3.61 -4.93 2.25 C-2.93 0.25 -2.93 0.25 0 0 Z " fill="#FDFDFD" transform="translate(1158.929214477539,202.7527618408203)"/>
<path d="M0 0 C1.88 0 1.88 0 3.8 0 C4.49 0 5.18 0 5.89 -0 C8.18 -0.01 10.47 0.01 12.76 0.02 C14.35 0.02 15.94 0.02 17.52 0.02 C20.85 0.02 24.17 0.03 27.5 0.04 C31.77 0.06 36.05 0.06 40.32 0.06 C43.6 0.06 46.87 0.07 50.15 0.07 C51.72 0.08 53.3 0.08 54.88 0.08 C57.08 0.08 59.27 0.09 61.47 0.1 C63.35 0.11 63.35 0.11 65.27 0.11 C68.07 0.25 68.07 0.25 69.07 1.25 C69.07 2.9 69.07 4.55 69.07 6.25 C45.31 6.25 21.55 6.25 -2.93 6.25 C-3.59 4.93 -4.25 3.61 -4.93 2.25 C-2.93 0.25 -2.93 0.25 0 0 Z " fill="#FDFDFD" transform="translate(1044.929214477539,202.7527618408203)"/>
<path d="M0 0 C1.88 0 1.88 0 3.8 0 C4.49 0 5.18 0 5.89 -0 C8.18 -0.01 10.47 0.01 12.76 0.02 C14.35 0.02 15.94 0.02 17.52 0.02 C20.85 0.02 24.17 0.03 27.5 0.04 C31.77 0.06 36.05 0.06 40.32 0.06 C43.6 0.06 46.87 0.07 50.15 0.07 C51.72 0.08 53.3 0.08 54.88 0.08 C57.08 0.08 59.27 0.09 61.47 0.1 C63.35 0.11 63.35 0.11 65.27 0.11 C68.07 0.25 68.07 0.25 69.07 1.25 C69.07 2.9 69.07 4.55 69.07 6.25 C45.31 6.25 21.55 6.25 -2.93 6.25 C-3.59 4.93 -4.25 3.61 -4.93 2.25 C-2.93 0.25 -2.93 0.25 0 0 Z " fill="#FDFDFD" transform="translate(930.9292144775391,202.7527618408203)"/>
<path d="M0 0 C0.68 -0 1.36 -0.01 2.06 -0.01 C4.31 -0.02 6.56 -0.02 8.82 -0.02 C10.38 -0.03 11.94 -0.03 13.5 -0.03 C16.78 -0.04 20.05 -0.04 23.33 -0.04 C27.53 -0.04 31.73 -0.05 35.94 -0.07 C39.16 -0.08 42.39 -0.08 45.61 -0.08 C47.16 -0.08 48.71 -0.09 50.26 -0.1 C52.43 -0.11 54.59 -0.1 56.76 -0.1 C58.61 -0.1 58.61 -0.1 60.49 -0.1 C63.38 0.15 63.38 0.15 65.38 2.15 C65.38 3.47 65.38 4.79 65.38 6.15 C41.29 6.15 17.2 6.15 -7.62 6.15 C-7.95 4.5 -8.28 2.85 -8.62 1.15 C-5.73 -0.3 -3.23 0.01 0 0 Z " fill="#FDFDFD" transform="translate(821.62109375,202.854736328125)"/>
<path d="M0 0 C1.88 0 1.88 0 3.8 0 C4.49 0 5.18 0 5.89 -0 C8.18 -0.01 10.47 0.01 12.76 0.02 C14.35 0.02 15.94 0.02 17.52 0.02 C20.85 0.02 24.17 0.03 27.5 0.04 C31.77 0.06 36.05 0.06 40.32 0.06 C43.6 0.06 46.87 0.07 50.15 0.07 C51.72 0.08 53.3 0.08 54.88 0.08 C57.08 0.08 59.27 0.09 61.47 0.1 C63.35 0.11 63.35 0.11 65.27 0.11 C68.07 0.25 68.07 0.25 69.07 1.25 C69.07 2.9 69.07 4.55 69.07 6.25 C45.31 6.25 21.55 6.25 -2.93 6.25 C-3.59 4.93 -4.25 3.61 -4.93 2.25 C-2.93 0.25 -2.93 0.25 0 0 Z " fill="#FDFDFD" transform="translate(589.9292144775391,202.7527618408203)"/>
<path d="M0 0 C1.88 0 1.88 0 3.8 0 C4.49 0 5.18 0 5.89 -0 C8.18 -0.01 10.47 0.01 12.76 0.02 C14.35 0.02 15.94 0.02 17.52 0.02 C20.85 0.02 24.17 0.03 27.5 0.04 C31.77 0.06 36.05 0.06 40.32 0.06 C43.6 0.06 46.87 0.07 50.15 0.07 C51.72 0.08 53.3 0.08 54.88 0.08 C57.08 0.08 59.27 0.09 61.47 0.1 C63.35 0.11 63.35 0.11 65.27 0.11 C68.07 0.25 68.07 0.25 69.07 1.25 C69.07 2.9 69.07 4.55 69.07 6.25 C45.31 6.25 21.55 6.25 -2.93 6.25 C-3.59 4.93 -4.25 3.61 -4.93 2.25 C-2.93 0.25 -2.93 0.25 0 0 Z " fill="#FDFDFD" transform="translate(475.92921447753906,202.7527618408203)"/>
<path d="M0 0 C1.88 0 1.88 0 3.8 0 C4.49 0 5.18 0 5.89 -0 C8.18 -0.01 10.47 0.01 12.76 0.02 C14.35 0.02 15.94 0.02 17.52 0.02 C20.85 0.02 24.17 0.03 27.5 0.04 C31.77 0.06 36.05 0.06 40.32 0.06 C43.6 0.06 46.87 0.07 50.15 0.07 C51.72 0.08 53.3 0.08 54.88 0.08 C57.08 0.08 59.27 0.09 61.47 0.1 C63.35 0.11 63.35 0.11 65.27 0.11 C68.07 0.25 68.07 0.25 69.07 1.25 C69.07 2.9 69.07 4.55 69.07 6.25 C45.31 6.25 21.55 6.25 -2.93 6.25 C-3.59 4.93 -4.25 3.61 -4.93 2.25 C-2.93 0.25 -2.93 0.25 0 0 Z " fill="#FDFDFD" transform="translate(361.92921447753906,202.7527618408203)"/>
<path d="M0 0 C1.88 0 1.88 0 3.8 0 C4.49 0 5.18 0 5.89 -0 C8.18 -0.01 10.47 0.01 12.76 0.02 C14.35 0.02 15.94 0.02 17.52 0.02 C20.85 0.02 24.17 0.03 27.5 0.04 C31.77 0.06 36.05 0.06 40.32 0.06 C43.6 0.06 46.87 0.07 50.15 0.07 C51.72 0.08 53.3 0.08 54.88 0.08 C57.08 0.08 59.27 0.09 61.47 0.1 C63.35 0.11 63.35 0.11 65.27 0.11 C68.07 0.25 68.07 0.25 69.07 1.25 C69.07 2.9 69.07 4.55 69.07 6.25 C45.31 6.25 21.55 6.25 -2.93 6.25 C-3.59 4.93 -4.25 3.61 -4.93 2.25 C-2.93 0.25 -2.93 0.25 0 0 Z " fill="#FDFDFD" transform="translate(134.92921447753906,202.7527618408203)"/>
<path d="M0 0 C1.88 0 1.88 0 3.8 0 C4.49 0 5.18 0 5.89 -0 C8.18 -0.01 10.47 0.01 12.76 0.02 C14.35 0.02 15.94 0.02 17.52 0.02 C20.85 0.02 24.17 0.03 27.5 0.04 C31.77 0.06 36.05 0.06 40.32 0.06 C43.6 0.06 46.87 0.07 50.15 0.07 C51.72 0.08 53.3 0.08 54.88 0.08 C57.08 0.08 59.27 0.09 61.47 0.1 C63.35 0.11 63.35 0.11 65.27 0.11 C68.07 0.25 68.07 0.25 69.07 1.25 C69.07 2.9 69.07 4.55 69.07 6.25 C45.31 6.25 21.55 6.25 -2.93 6.25 C-3.59 4.93 -4.25 3.61 -4.93 2.25 C-2.93 0.25 -2.93 0.25 0 0 Z " fill="#FDFDFD" transform="translate(20.929214477539063,202.7527618408203)"/>
<path d="M0 0 C1.02 -0.01 1.02 -0.01 2.06 -0.01 C4.31 -0.02 6.56 -0.01 8.82 -0.01 C10.38 -0.01 11.94 -0.01 13.5 -0.01 C16.78 -0.02 20.05 -0.01 23.33 -0 C27.53 0.01 31.73 0 35.94 -0.01 C39.16 -0.02 42.39 -0.01 45.61 -0.01 C47.16 -0.01 48.71 -0.01 50.26 -0.01 C52.43 -0.02 54.59 -0.01 56.76 0 C58.61 0 58.61 0 60.49 0 C63.38 0.26 63.38 0.26 65.38 2.26 C65.38 3.58 65.38 4.9 65.38 6.26 C41.62 6.26 17.86 6.26 -6.62 6.26 C-7.28 4.94 -7.94 3.62 -8.62 2.26 C-5.79 -0.57 -3.96 0.01 0 0 Z " fill="#FDFDFD" transform="translate(707.62109375,202.7412109375)"/>
<path d="M0 0 C1.02 -0.01 1.02 -0.01 2.06 -0.01 C4.31 -0.02 6.56 -0.01 8.82 -0.01 C10.38 -0.01 11.94 -0.01 13.5 -0.01 C16.78 -0.02 20.05 -0.01 23.33 -0 C27.53 0.01 31.73 0 35.94 -0.01 C39.16 -0.02 42.39 -0.01 45.61 -0.01 C47.16 -0.01 48.71 -0.01 50.26 -0.01 C52.43 -0.02 54.59 -0.01 56.76 0 C58.61 0 58.61 0 60.49 0 C63.38 0.26 63.38 0.26 65.38 2.26 C65.38 3.58 65.38 4.9 65.38 6.26 C41.62 6.26 17.86 6.26 -6.62 6.26 C-7.28 4.94 -7.94 3.62 -8.62 2.26 C-5.79 -0.57 -3.96 0.01 0 0 Z " fill="#FDFDFD" transform="translate(252.62109375,202.7412109375)"/>
<path d="M0 0 C0.45 0.43 0.9 0.87 1.36 1.31 C6.38 5.66 9.98 6.64 16.58 6.5 C19.37 5.92 20.12 5.04 22 3 C25.34 3.24 26.61 3.61 29 6 C33.24 6.65 38.06 7.18 41.84 4.88 C43.36 3.39 43.36 3.39 45 1 C45.99 1.33 46.98 1.66 48 2 C46.82 7 45.6 10.17 42 14 C38.33 15.84 34.02 15.39 30 15 C27.12 13.44 27.12 13.44 25 12 C21.9 12.27 20.67 13.22 18 15 C12.91 15.84 8.36 15.73 4 12.81 C1.26 10.52 -0.28 8.58 -1 5 C-0.62 2.19 -0.62 2.19 0 0 Z " fill="#D90A02" transform="translate(616,279)"/>
<path d="M0 0 C1.26 0 2.52 0 3.82 0.01 C4.51 0.01 5.2 0.01 5.91 0.01 C8.21 0.01 10.51 0.01 12.81 0.02 C14.4 0.02 15.99 0.03 17.58 0.03 C21.78 0.03 25.97 0.04 30.17 0.05 C34.44 0.06 38.72 0.07 42.99 0.07 C51.39 0.08 59.79 0.1 68.18 0.12 C68.68 2.6 68.68 2.6 69.18 5.12 C45.09 5.12 21 5.12 -3.82 5.12 C-3.82 0.16 -3.82 0.16 0 0 Z " fill="#FDFDFD" transform="translate(1158.815689086914,497.87974548339844)"/>
<path d="M0 0 C1.26 0 2.52 0 3.82 0.01 C4.51 0.01 5.2 0.01 5.91 0.01 C8.21 0.01 10.51 0.01 12.81 0.02 C14.4 0.02 15.99 0.03 17.58 0.03 C21.78 0.03 25.97 0.04 30.17 0.05 C34.44 0.06 38.72 0.07 42.99 0.07 C51.39 0.08 59.79 0.1 68.18 0.12 C68.68 2.6 68.68 2.6 69.18 5.12 C45.09 5.12 21 5.12 -3.82 5.12 C-3.82 0.16 -3.82 0.16 0 0 Z " fill="#FDFDFD" transform="translate(1044.815689086914,497.87974548339844)"/>
<path d="M0 0 C1.26 0 2.52 0 3.82 0.01 C4.51 0.01 5.2 0.01 5.91 0.01 C8.21 0.01 10.51 0.01 12.81 0.02 C14.4 0.02 15.99 0.03 17.58 0.03 C21.78 0.03 25.97 0.04 30.17 0.05 C34.44 0.06 38.72 0.07 42.99 0.07 C51.39 0.08 59.79 0.1 68.18 0.12 C68.68 2.6 68.68 2.6 69.18 5.12 C45.09 5.12 21 5.12 -3.82 5.12 C-3.82 0.16 -3.82 0.16 0 0 Z " fill="#FDFDFD" transform="translate(703.8156890869141,497.87974548339844)"/>
<path d="M0 0 C1.26 0 2.52 0 3.82 0.01 C4.51 0.01 5.2 0.01 5.91 0.01 C8.21 0.01 10.51 0.01 12.81 0.02 C14.4 0.02 15.99 0.03 17.58 0.03 C21.78 0.03 25.97 0.04 30.17 0.05 C34.44 0.06 38.72 0.07 42.99 0.07 C51.39 0.08 59.79 0.1 68.18 0.12 C68.68 2.6 68.68 2.6 69.18 5.12 C45.09 5.12 21 5.12 -3.82 5.12 C-3.82 0.16 -3.82 0.16 0 0 Z " fill="#FDFDFD" transform="translate(589.8156890869141,497.87974548339844)"/>
<path d="M0 0 C0.68 -0 1.36 -0 2.06 -0.01 C4.31 -0.01 6.56 -0.01 8.82 -0 C10.38 -0 11.94 -0.01 13.5 -0.01 C16.78 -0.01 20.05 -0.01 23.33 -0 C27.53 0 31.73 0 35.94 -0 C39.16 -0.01 42.39 -0.01 45.61 -0 C47.16 -0 48.71 -0 50.26 -0.01 C52.43 -0.01 54.59 -0.01 56.76 0 C57.99 0 59.22 0 60.49 0 C63.38 0.13 63.38 0.13 65.38 1.13 C65.38 2.45 65.38 3.77 65.38 5.13 C41.29 5.13 17.2 5.13 -7.62 5.13 C-7.95 3.81 -8.28 2.49 -8.62 1.13 C-5.73 -0.32 -3.23 0 0 0 Z " fill="#FCFCFC" transform="translate(252.62109375,497.87060546875)"/>
<path d="M0 0 C1.26 0 2.52 0 3.82 0.01 C4.51 0.01 5.2 0.01 5.91 0.01 C8.21 0.01 10.51 0.01 12.81 0.02 C14.4 0.02 15.99 0.03 17.58 0.03 C21.78 0.03 25.97 0.04 30.17 0.05 C34.44 0.06 38.72 0.07 42.99 0.07 C51.39 0.08 59.79 0.1 68.18 0.12 C68.68 2.6 68.68 2.6 69.18 5.12 C45.09 5.12 21 5.12 -3.82 5.12 C-3.82 0.16 -3.82 0.16 0 0 Z " fill="#FDFDFD" transform="translate(134.81568908691406,497.87974548339844)"/>
<path d="M0 0 C1.26 0 2.52 0 3.82 0.01 C4.51 0.01 5.2 0.01 5.91 0.01 C8.21 0.01 10.51 0.01 12.81 0.02 C14.4 0.02 15.99 0.03 17.58 0.03 C21.78 0.03 25.97 0.04 30.17 0.05 C34.44 0.06 38.72 0.07 42.99 0.07 C51.39 0.08 59.79 0.1 68.18 0.12 C68.68 2.6 68.68 2.6 69.18 5.12 C45.09 5.12 21 5.12 -3.82 5.12 C-3.82 0.16 -3.82 0.16 0 0 Z " fill="#FDFDFD" transform="translate(20.815689086914063,497.87974548339844)"/>
<path d="M0 0 C23.43 0 46.86 0 71 0 C71.5 2.48 71.5 2.48 72 5 C47.91 5 23.82 5 -1 5 C-0.67 3.35 -0.34 1.7 0 0 Z " fill="#FDFDFD" transform="translate(928,498)"/>
<path d="M0 0 C23.43 0 46.86 0 71 0 C71.5 2.48 71.5 2.48 72 5 C47.91 5 23.82 5 -1 5 C-0.67 3.35 -0.34 1.7 0 0 Z " fill="#FDFDFD" transform="translate(473,498)"/>
<path d="M0 0 C0.68 -0 1.36 -0.01 2.06 -0.02 C4.31 -0.03 6.56 -0.04 8.82 -0.04 C10.38 -0.05 11.94 -0.05 13.5 -0.06 C16.78 -0.07 20.05 -0.08 23.33 -0.08 C27.53 -0.08 31.73 -0.11 35.94 -0.14 C39.16 -0.16 42.39 -0.16 45.61 -0.16 C47.16 -0.17 48.71 -0.17 50.26 -0.19 C52.43 -0.2 54.59 -0.2 56.76 -0.2 C57.99 -0.2 59.22 -0.2 60.49 -0.21 C61.45 -0.09 62.4 0.04 63.38 0.16 C64.37 1.65 64.37 1.65 65.38 3.16 C65.05 3.82 64.72 4.48 64.38 5.16 C40.62 5.16 16.86 5.16 -7.62 5.16 C-7.95 3.84 -8.28 2.52 -8.62 1.16 C-5.73 -0.28 -3.23 0.02 0 0 Z " fill="#FCFCFC" transform="translate(821.62109375,497.8388671875)"/>
<path d="M0 0 C1.26 0 2.52 0 3.82 0.01 C4.51 0.01 5.2 0.01 5.91 0.01 C8.21 0.01 10.51 0.01 12.81 0.02 C14.4 0.02 15.99 0.03 17.58 0.03 C21.78 0.03 25.97 0.04 30.17 0.05 C34.44 0.06 38.72 0.07 42.99 0.07 C51.39 0.08 59.79 0.1 68.18 0.12 C68.68 2.6 68.68 2.6 69.18 5.12 C45.42 5.12 21.66 5.12 -2.82 5.12 C-3.15 3.8 -3.48 2.48 -3.82 1.12 C-2.82 0.12 -2.82 0.12 0 0 Z " fill="#FDFDFD" transform="translate(361.81568908691406,497.87974548339844)"/>
<path d="M0 0 C1.68 0.29 3.34 0.62 5 1 C5 2.32 5 3.64 5 5 C3.35 5 1.7 5 0 5 C-0.56 3.06 -0.56 3.06 -1 1 C-0.67 0.67 -0.34 0.34 0 0 Z " fill="#FDFDFD" transform="translate(256,521)"/>
<path d="M0 0 C1.65 0.33 3.3 0.66 5 1 C5 2.32 5 3.64 5 5 C3.35 5 1.7 5 0 5 C-0.33 4.01 -0.66 3.02 -1 2 C-0.67 1.34 -0.34 0.68 0 0 Z " fill="#FDFDFD" transform="translate(1166,521)"/>
<path d="M0 0 C1.65 0.33 3.3 0.66 5 1 C5 2.32 5 3.64 5 5 C3.35 5 1.7 5 0 5 C-0.33 4.01 -0.66 3.02 -1 2 C-0.67 1.34 -0.34 0.68 0 0 Z " fill="#FCF9F9" transform="translate(825,521)"/>
<path d="M0 0 C1.65 0.33 3.3 0.66 5 1 C5 2.32 5 3.64 5 5 C3.35 5 1.7 5 0 5 C-0.33 4.01 -0.66 3.02 -1 2 C-0.67 1.34 -0.34 0.68 0 0 Z " fill="#FDFDFD" transform="translate(711,521)"/>
<path d="M0 0 C1.65 0.33 3.3 0.66 5 1 C5 2.32 5 3.64 5 5 C3.35 5 1.7 5 0 5 C-0.33 4.01 -0.66 3.02 -1 2 C-0.67 1.34 -0.34 0.68 0 0 Z " fill="#FDFDFD" transform="translate(142,521)"/>
</svg>
